<?xml version="1.0" encoding="UTF-8" standalone="no"?>
<!-- Created with Inkscape (http://www.inkscape.org/) -->

<svg
   width="12.8cm"
   height="9.6000004cm"
   id="svg8878"
   version="1.1"
   inkscape:version="1.2.2 (b0a8486, 2022-12-01)"
   sodipodi:docname="be-wcol-col.svg"
   xmlns:inkscape="http://www.inkscape.org/namespaces/inkscape"
   xmlns:sodipodi="http://sodipodi.sourceforge.net/DTD/sodipodi-0.dtd"
   xmlns:xlink="http://www.w3.org/1999/xlink"
   xmlns="http://www.w3.org/2000/svg"
   xmlns:svg="http://www.w3.org/2000/svg"
   xmlns:rdf="http://www.w3.org/1999/02/22-rdf-syntax-ns#"
   xmlns:cc="http://creativecommons.org/ns#"
   xmlns:dc="http://purl.org/dc/elements/1.1/">
  <sodipodi:namedview
     id="base"
     pagecolor="#ffffff"
     bordercolor="#666666"
     borderopacity="1.0"
     inkscape:pageopacity="0.0"
     inkscape:pageshadow="2"
     inkscape:zoom="1.6433607"
     inkscape:cx="155.16983"
     inkscape:cy="173.42511"
     inkscape:document-units="px"
     inkscape:current-layer="layer1"
     showgrid="false"
     units="cm"
     inkscape:window-width="1920"
     inkscape:window-height="1048"
     inkscape:window-x="0"
     inkscape:window-y="32"
     inkscape:window-maximized="1"
     inkscape:snap-page="true"
     inkscape:snap-bbox="true"
     showguides="true"
     inkscape:guide-bbox="true"
     inkscape:snap-center="true"
     inkscape:snap-global="false"
     inkscape:showpageshadow="2"
     inkscape:pagecheckerboard="0"
     inkscape:deskcolor="#d1d1d1">
    <sodipodi:guide
       inkscape:locked="false"
       orientation="1,0"
       position="19.950513,245.97214"
       id="guide409936" />
    <sodipodi:guide
       inkscape:locked="false"
       orientation="0,1"
       position="243.32608,5.4966461"
       id="guide409938" />
    <sodipodi:guide
       inkscape:locked="false"
       orientation="0,1"
       position="67.68022,328.80465"
       id="guide409940" />
  </sodipodi:namedview>
  <defs
     id="defs8880">
    <inkscape:path-effect
       is_visible="true"
       id="path-effect1418"
       effect="spiro" />
    <inkscape:path-effect
       effect="spiro"
       id="path-effect24263"
       is_visible="true" />
    <inkscape:path-effect
       is_visible="true"
       id="path-effect24259"
       effect="spiro" />
    <inkscape:path-effect
       effect="spiro"
       id="path-effect24255"
       is_visible="true" />
    <inkscape:path-effect
       is_visible="true"
       id="path-effect24251"
       effect="spiro" />
    <inkscape:path-effect
       is_visible="true"
       id="path-effect24247"
       effect="spiro" />
    <inkscape:path-effect
       effect="spiro"
       id="path-effect24220"
       is_visible="true" />
    <inkscape:path-effect
       effect="spiro"
       id="path-effect139801"
       is_visible="true" />
    <inkscape:path-effect
       effect="spiro"
       id="path-effect139797"
       is_visible="true" />
    <inkscape:path-effect
       effect="spiro"
       id="path-effect139793"
       is_visible="true" />
    <inkscape:path-effect
       effect="spiro"
       id="path-effect139753"
       is_visible="true" />
    <linearGradient
       id="linearGradient82684"
       inkscape:collect="always">
      <stop
         id="stop82686"
         offset="0"
         style="stop-color:#f5e4a3;stop-opacity:1" />
      <stop
         id="stop82688"
         offset="1"
         style="stop-color:#ffffff;stop-opacity:1" />
    </linearGradient>
    <linearGradient
       y2="575.46881"
       x2="-26.497292"
       y1="684.45697"
       x1="100.80494"
       gradientTransform="matrix(2.5348194,0,0,2.5348194,214.48822,-602.80841)"
       gradientUnits="userSpaceOnUse"
       id="linearGradient57622-1"
       xlink:href="#linearGradient67828"
       inkscape:collect="always" />
    <linearGradient
       inkscape:collect="always"
       id="linearGradient67828">
      <stop
         style="stop-color:#a3def5;stop-opacity:1"
         offset="0"
         id="stop67830" />
      <stop
         style="stop-color:#cccccc;stop-opacity:0;"
         offset="1"
         id="stop67832" />
    </linearGradient>
    <clipPath
       id="clipPath144859"
       clipPathUnits="userSpaceOnUse">
      <path
         id="path144861"
         d="M 49.062929,39.075297 H 309.6 V 182.23118 H 49.062929 Z"
         inkscape:connector-curvature="0" />
    </clipPath>
    <clipPath
       id="clipPath144875"
       clipPathUnits="userSpaceOnUse">
      <path
         id="path144877"
         d="M 49.062929,39.075297 H 309.6 V 182.23118 H 49.062929 Z"
         inkscape:connector-curvature="0" />
    </clipPath>
    <clipPath
       id="clipPath144891"
       clipPathUnits="userSpaceOnUse">
      <path
         id="path144893"
         d="M 49.062929,39.075297 H 309.6 V 182.23118 H 49.062929 Z"
         inkscape:connector-curvature="0" />
    </clipPath>
    <clipPath
       id="clipPath144907"
       clipPathUnits="userSpaceOnUse">
      <path
         id="path144909"
         d="M 49.062929,39.075297 H 309.6 V 182.23118 H 49.062929 Z"
         inkscape:connector-curvature="0" />
    </clipPath>
    <clipPath
       id="clipPath144923"
       clipPathUnits="userSpaceOnUse">
      <path
         id="path144925"
         d="M 49.062929,39.075297 H 309.6 V 182.23118 H 49.062929 Z"
         inkscape:connector-curvature="0" />
    </clipPath>
    <clipPath
       id="clipPath144943"
       clipPathUnits="userSpaceOnUse">
      <path
         id="path144945"
         d="M 49.062929,39.075297 H 309.6 V 182.23118 H 49.062929 Z"
         inkscape:connector-curvature="0" />
    </clipPath>
    <clipPath
       id="clipPath144953"
       clipPathUnits="userSpaceOnUse">
      <path
         id="path144955"
         d="M 49.062929,39.075297 H 309.6 V 182.23118 H 49.062929 Z"
         inkscape:connector-curvature="0" />
    </clipPath>
    <clipPath
       id="clipPath144963"
       clipPathUnits="userSpaceOnUse">
      <path
         id="path144965"
         d="M 49.062929,39.075297 H 309.6 V 182.23118 H 49.062929 Z"
         inkscape:connector-curvature="0" />
    </clipPath>
    <clipPath
       id="clipPath144973"
       clipPathUnits="userSpaceOnUse">
      <path
         id="path144975"
         d="M 49.062929,39.075297 H 309.6 V 182.23118 H 49.062929 Z"
         inkscape:connector-curvature="0" />
    </clipPath>
    <clipPath
       id="clipPath144983"
       clipPathUnits="userSpaceOnUse">
      <path
         id="path144985"
         d="M 49.062929,39.075297 H 309.6 V 182.23118 H 49.062929 Z"
         inkscape:connector-curvature="0" />
    </clipPath>
    <clipPath
       id="clipPath145713"
       clipPathUnits="userSpaceOnUse">
      <rect
         transform="rotate(11.269318)"
         rx="0"
         ry="0"
         y="480.71014"
         x="342.50027"
         height="600.44934"
         width="799.70148"
         id="rect145715"
         style="color:#000000;display:inline;overflow:visible;visibility:visible;fill:#ffffff;fill-opacity:1;fill-rule:nonzero;stroke:none;stroke-width:0.39450544;marker:none;enable-background:accumulate" />
    </clipPath>
    <clipPath
       id="clipPath281184"
       clipPathUnits="userSpaceOnUse">
      <rect
         transform="rotate(75)"
         style="color:#000000;display:inline;overflow:visible;visibility:visible;fill:url(#linearGradient281188);fill-opacity:1;fill-rule:nonzero;stroke:none;stroke-width:0.39450544;marker:none;enable-background:accumulate"
         id="rect281186"
         width="453.5433"
         height="340.15744"
         x="-2.8421709e-14"
         y="712.20343" />
    </clipPath>
    <linearGradient
       y2="575.46881"
       x2="-26.497292"
       y1="684.45697"
       x1="100.80494"
       gradientTransform="matrix(0.65605955,-2.4484475,2.4484475,0.65605955,-526.75455,-363.198)"
       gradientUnits="userSpaceOnUse"
       id="linearGradient281188"
       xlink:href="#linearGradient82684"
       inkscape:collect="always" />
    <clipPath
       id="clipPath281192"
       clipPathUnits="userSpaceOnUse">
      <rect
         style="color:#000000;display:inline;overflow:visible;visibility:visible;fill:none;stroke:#ff0000;stroke-width:0.53446186;marker:none;enable-background:accumulate"
         id="rect281194"
         width="614.44421"
         height="460.83313"
         x="-325.92343"
         y="964.40515" />
    </clipPath>
    <clipPath
       id="clipPath409888"
       clipPathUnits="userSpaceOnUse">
      <rect
         y="462.46887"
         x="-178.30898"
         height="357.1973"
         width="574.84442"
         id="rect409890"
         style="color:#000000;display:inline;overflow:visible;visibility:visible;fill:#4f9cc1;fill-opacity:1;fill-rule:nonzero;stroke:none;stroke-width:1;marker:none;enable-background:accumulate" />
    </clipPath>
    <linearGradient
       inkscape:collect="always"
       xlink:href="#linearGradient393116"
       id="linearGradient393122"
       x1="-227.78438"
       y1="890.64032"
       x2="-215.45055"
       y2="889.89972"
       gradientUnits="userSpaceOnUse" />
    <linearGradient
       inkscape:collect="always"
       id="linearGradient393116">
      <stop
         style="stop-color:#745c4c;stop-opacity:1"
         offset="0"
         id="stop393118" />
      <stop
         style="stop-color:#9a7965;stop-opacity:1"
         offset="1"
         id="stop393120" />
    </linearGradient>
    <linearGradient
       id="linearGradient67828-7"
       inkscape:collect="always">
      <stop
         id="stop67830-6"
         offset="0"
         style="stop-color:#a3def5;stop-opacity:1" />
      <stop
         id="stop67832-1"
         offset="1"
         style="stop-color:#cccccc;stop-opacity:0;" />
    </linearGradient>
    <linearGradient
       y2="575.46881"
       x2="-26.497292"
       y1="684.45697"
       x1="100.80494"
       gradientTransform="matrix(2.5348194,0,0,2.5348194,214.48822,-1315.0118)"
       gradientUnits="userSpaceOnUse"
       id="linearGradient33819"
       xlink:href="#linearGradient67828-7"
       inkscape:collect="always" />
    <clipPath
       clipPathUnits="userSpaceOnUse"
       id="clipPath35585">
      <rect
         style="color:#000000;display:inline;overflow:visible;visibility:visible;fill:#ff0000;fill-opacity:1;fill-rule:nonzero;stroke:none;stroke-width:0.39450544;marker:none;enable-background:accumulate"
         id="rect35587"
         width="170.32901"
         height="139.28575"
         x="211.12955"
         y="828.12201" />
    </clipPath>
    <linearGradient
       inkscape:collect="always"
       xlink:href="#linearGradient382601"
       id="linearGradient32107"
       gradientUnits="userSpaceOnUse"
       gradientTransform="matrix(-1,0,0.51449546,-0.8574931,0,0)"
       x1="-421.36243"
       y1="-705.01184"
       x2="-421.53091"
       y2="-710.31982" />
    <linearGradient
       inkscape:collect="always"
       id="linearGradient382601">
      <stop
         style="stop-color:#17404b;stop-opacity:1"
         offset="0"
         id="stop382603" />
      <stop
         style="stop-color:#246374;stop-opacity:1"
         offset="1"
         id="stop382605" />
    </linearGradient>
    <inkscape:path-effect
       effect="spiro"
       id="path-effect139793-5"
       is_visible="true" />
    <clipPath
       clipPathUnits="userSpaceOnUse"
       id="clipPath40970">
      <rect
         style="color:#000000;display:inline;overflow:visible;visibility:visible;fill:#e4ddc7;fill-opacity:1;fill-rule:nonzero;stroke:none;stroke-width:0.39450544;marker:none;enable-background:accumulate"
         id="rect40972"
         width="723.02332"
         height="542.26746"
         x="7.7837048"
         y="2.9106765" />
    </clipPath>
    <inkscape:path-effect
       effect="spiro"
       id="path-effect24220-5"
       is_visible="true" />
    <inkscape:path-effect
       effect="spiro"
       id="path-effect10094"
       is_visible="true" />
    <linearGradient
       inkscape:collect="always"
       id="linearGradient85287">
      <stop
         style="stop-color:#3d5eb0;stop-opacity:1"
         offset="0"
         id="stop85283" />
      <stop
         style="stop-color:#2c4480;stop-opacity:1"
         offset="1"
         id="stop85285" />
    </linearGradient>
    <linearGradient
       inkscape:collect="always"
       id="linearGradient85293">
      <stop
         style="stop-color:#3d5eb0;stop-opacity:1"
         offset="0"
         id="stop85289" />
      <stop
         style="stop-color:#627dbe;stop-opacity:1"
         offset="1"
         id="stop85291" />
    </linearGradient>
    <linearGradient
       inkscape:collect="always"
       xlink:href="#linearGradient85293"
       id="linearGradient36657-0"
       gradientUnits="userSpaceOnUse"
       gradientTransform="matrix(0.28047139,0.27167608,-0.37726163,0.10072617,-179.94116,155.38511)"
       x1="-294.03204"
       y1="-709.72137"
       x2="-293.96631"
       y2="-706.33673" />
    <linearGradient
       inkscape:collect="always"
       xlink:href="#linearGradient85293"
       id="linearGradient58662"
       gradientUnits="userSpaceOnUse"
       gradientTransform="matrix(0.00317689,0.55207838,-0.4750379,-0.28131766,-138.36905,1141.7847)"
       x1="-627.48901"
       y1="-515.21936"
       x2="-622.93408"
       y2="-512.92804" />
    <linearGradient
       inkscape:collect="always"
       xlink:href="#linearGradient85287"
       id="linearGradient36653-2"
       gradientUnits="userSpaceOnUse"
       gradientTransform="matrix(-0.28047139,-0.27167608,0.06827668,0.46586221,149.52199,-184.7848)"
       x1="730.3775"
       y1="823.97028"
       x2="731.26001"
       y2="827.97473" />
    <linearGradient
       inkscape:collect="always"
       xlink:href="#linearGradient85287"
       id="linearGradient58687"
       gradientUnits="userSpaceOnUse"
       gradientTransform="matrix(-0.00317689,-0.55207838,-0.40290409,0.52994167,538.07693,1135.3697)"
       x1="1400.6254"
       y1="1072.0842"
       x2="1398.1636"
       y2="1074.501" />
    <linearGradient
       inkscape:collect="always"
       xlink:href="#linearGradient85287"
       id="linearGradient58764"
       gradientUnits="userSpaceOnUse"
       gradientTransform="matrix(-0.00317689,-0.55207838,-0.40290409,0.52994167,538.07693,1135.3697)"
       x1="1400.9507"
       y1="1071.7493"
       x2="1398.0834"
       y2="1074.5016" />
    <inkscape:path-effect
       is_visible="true"
       id="path-effect32030"
       effect="spiro" />
    <inkscape:path-effect
       is_visible="true"
       id="path-effect32034"
       effect="spiro" />
    <inkscape:path-effect
       is_visible="true"
       id="path-effect32038"
       effect="spiro" />
    <inkscape:path-effect
       is_visible="true"
       id="path-effect31707-0"
       effect="spiro" />
    <inkscape:path-effect
       effect="spiro"
       id="path-effect31734-6"
       is_visible="true" />
    <inkscape:path-effect
       effect="spiro"
       id="path-effect31716-2"
       is_visible="true" />
    <inkscape:path-effect
       is_visible="true"
       id="path-effect31680-6"
       effect="spiro" />
    <inkscape:path-effect
       effect="spiro"
       id="path-effect61898-4"
       is_visible="true" />
    <inkscape:path-effect
       is_visible="true"
       id="path-effect1418-5"
       effect="spiro"
       lpeversion="0" />
  </defs>
  <metadata
     id="metadata8883">
    <rdf:RDF>
      <cc:Work
         rdf:about="">
        <dc:format>image/svg+xml</dc:format>
        <dc:type
           rdf:resource="http://purl.org/dc/dcmitype/StillImage" />
      </cc:Work>
    </rdf:RDF>
  </metadata>
  <g
     inkscape:groupmode="layer"
     id="layer2"
     inkscape:label="BG"
     sodipodi:insensitive="true">
    <rect
       y="6.0087044e-05"
       x="0"
       height="362.83459"
       width="483.77951"
       id="rect67793-7"
       style="color:#000000;display:inline;overflow:visible;visibility:visible;opacity:1;vector-effect:none;fill:#f3eedf;fill-opacity:1;fill-rule:nonzero;stroke:none;stroke-width:0.94095039;stroke-linecap:butt;stroke-linejoin:miter;stroke-miterlimit:4;stroke-dasharray:none;stroke-dashoffset:0;stroke-opacity:1;marker:none;enable-background:accumulate" />
  </g>
  <g
     transform="translate(0, -689.526)"
     id="layer1"
     inkscape:groupmode="layer"
     inkscape:label="Layer 1">
    <g
       id="g68680"
       transform="translate(577.27408,1123.6129)"
       style="fill:#b7d4ab;fill-opacity:1" />
    <g
       id="g144855"
       transform="matrix(1.25,0,0,-1.25,-379.82745,1476.9066)">
      <g
         clip-path="url(#clipPath144859)"
         id="g144857" />
    </g>
    <g
       id="g144871"
       transform="matrix(1.25,0,0,-1.25,-379.82745,1476.9066)">
      <g
         clip-path="url(#clipPath144875)"
         id="g144873" />
    </g>
    <g
       id="g144887"
       transform="matrix(1.25,0,0,-1.25,-379.82745,1476.9066)">
      <g
         clip-path="url(#clipPath144891)"
         id="g144889" />
    </g>
    <g
       id="g144903"
       transform="matrix(1.25,0,0,-1.25,-379.82745,1476.9066)">
      <g
         clip-path="url(#clipPath144907)"
         id="g144905" />
    </g>
    <g
       id="g144919"
       transform="matrix(1.25,0,0,-1.25,-379.82745,1476.9066)">
      <g
         clip-path="url(#clipPath144923)"
         id="g144921" />
    </g>
    <g
       transform="matrix(0.48725789,0,0,0.48725789,444.26941,425.40337)"
       id="g4779" />
    <g
       id="g150544"
       transform="translate(0,140)" />
    <rect
       transform="scale(1,-1)"
       style="color:#000000;clip-rule:nonzero;display:inline;overflow:visible;visibility:visible;opacity:1;isolation:auto;mix-blend-mode:normal;color-interpolation:sRGB;color-interpolation-filters:linearRGB;solid-color:#000000;solid-opacity:1;vector-effect:none;fill:#f3eedf;fill-opacity:1;fill-rule:nonzero;stroke:none;stroke-width:0.94095039;stroke-linecap:butt;stroke-linejoin:miter;stroke-miterlimit:4;stroke-dasharray:none;stroke-dashoffset:0;stroke-opacity:1;marker:none;color-rendering:auto;image-rendering:auto;shape-rendering:auto;text-rendering:auto;enable-background:accumulate"
       id="rect64079"
       width="201.94951"
       height="37.883915"
       x="21.280544"
       y="-597.13202" />
    <rect
       transform="scale(1,-1)"
       style="color:#000000;display:inline;overflow:visible;visibility:visible;fill:#a70267;fill-opacity:1;fill-rule:nonzero;stroke:none;stroke-width:0.42080581;marker:none;enable-background:accumulate"
       id="rect64065"
       width="40.3899"
       height="37.883915"
       x="182.84015"
       y="-620.84387" />
    <rect
       y="-620.84387"
       x="142.45024"
       height="37.883915"
       width="40.3899"
       id="rect64067"
       style="color:#000000;display:inline;overflow:visible;visibility:visible;fill:#f10c49;fill-opacity:1;fill-rule:nonzero;stroke:none;stroke-width:0.42080581;marker:none;enable-background:accumulate"
       transform="scale(1,-1)" />
    <rect
       y="-597.13202"
       x="21.280544"
       height="37.883915"
       width="103.30811"
       id="rect64327"
       style="color:#000000;clip-rule:nonzero;display:inline;overflow:visible;visibility:visible;opacity:1;isolation:auto;mix-blend-mode:normal;color-interpolation:sRGB;color-interpolation-filters:linearRGB;solid-color:#000000;solid-opacity:1;vector-effect:none;fill:#e4cb9e;fill-opacity:1;fill-rule:nonzero;stroke:none;stroke-width:0.49529371;stroke-linecap:butt;stroke-linejoin:miter;stroke-miterlimit:4;stroke-dasharray:none;stroke-dashoffset:0;stroke-opacity:1;marker:none;color-rendering:auto;image-rendering:auto;shape-rendering:auto;text-rendering:auto;enable-background:accumulate"
       transform="scale(1,-1)" />
    <rect
       transform="scale(1,-1)"
       style="color:#000000;display:inline;overflow:visible;visibility:visible;fill:#fb6b41;fill-opacity:1;fill-rule:nonzero;stroke:none;stroke-width:0.42080581;marker:none;enable-background:accumulate"
       id="rect64069"
       width="40.3899"
       height="37.883915"
       x="102.06034"
       y="-620.84387" />
    <rect
       y="-620.84387"
       x="61.670452"
       height="37.883915"
       width="40.3899"
       id="rect64071"
       style="color:#000000;display:inline;overflow:visible;visibility:visible;fill:#f6d86b;fill-opacity:1;fill-rule:nonzero;stroke:none;stroke-width:0.42080581;marker:none;enable-background:accumulate"
       transform="scale(1,-1)" />
    <rect
       transform="scale(1,-1)"
       style="color:#000000;display:inline;overflow:visible;visibility:visible;fill:#339194;fill-opacity:1;fill-rule:nonzero;stroke:none;stroke-width:0.42080581;marker:none;enable-background:accumulate"
       id="rect64073"
       width="40.3899"
       height="37.883915"
       x="21.280544"
       y="-620.84387" />
    <rect
       y="-658.72778"
       x="102.06036"
       height="37.883915"
       width="40.3899"
       id="rect64075"
       style="color:#000000;display:inline;overflow:visible;visibility:visible;fill:#4a1234;fill-opacity:1;fill-rule:nonzero;stroke:none;stroke-width:0.42080581;marker:none;enable-background:accumulate"
       transform="scale(1,-1)" />
    <rect
       style="color:#000000;clip-rule:nonzero;display:inline;overflow:visible;visibility:visible;opacity:1;isolation:auto;mix-blend-mode:normal;color-interpolation:sRGB;color-interpolation-filters:linearRGB;solid-color:#000000;solid-opacity:1;fill:#fdfcf7;fill-opacity:1;fill-rule:nonzero;stroke:none;stroke-width:0.69249558;stroke-linecap:butt;stroke-linejoin:miter;stroke-miterlimit:4;stroke-dasharray:none;stroke-dashoffset:0;stroke-opacity:1;marker:none;color-rendering:auto;image-rendering:auto;shape-rendering:auto;text-rendering:auto;enable-background:accumulate"
       id="rect64077"
       width="25.843702"
       height="24.240234"
       x="109.33347"
       y="627.66571" />
    <g
       id="g57876"
       transform="translate(-7.778179,-85.713766)">
      <rect
         transform="matrix(0,-1,-1,0,0,0)"
         style="color:#000000;display:inline;overflow:visible;visibility:visible;fill:#a70267;fill-opacity:1;fill-rule:nonzero;stroke:none;stroke-width:0.42080581;marker:none;enable-background:accumulate"
         id="rect57855"
         width="40.3899"
         height="37.883915"
         x="-855.31012"
         y="-557.66888" />
      <rect
         y="-557.66888"
         x="-895.70001"
         height="37.883915"
         width="40.3899"
         id="rect57857"
         style="color:#000000;display:inline;overflow:visible;visibility:visible;fill:#f10c49;fill-opacity:1;fill-rule:nonzero;stroke:none;stroke-width:0.42080581;marker:none;enable-background:accumulate"
         transform="matrix(0,-1,-1,0,0,0)" />
      <rect
         transform="matrix(0,-1,-1,0,0,0)"
         style="color:#000000;display:inline;overflow:visible;visibility:visible;fill:#fb6b41;fill-opacity:1;fill-rule:nonzero;stroke:none;stroke-width:0.42080581;marker:none;enable-background:accumulate"
         id="rect57859"
         width="40.3899"
         height="37.883915"
         x="-935.69995"
         y="-557.66888" />
      <rect
         y="-557.66888"
         x="-976.08984"
         height="37.883915"
         width="40.3899"
         id="rect57861"
         style="color:#000000;display:inline;overflow:visible;visibility:visible;fill:#f6d86b;fill-opacity:1;fill-rule:nonzero;stroke:none;stroke-width:0.42080581;marker:none;enable-background:accumulate"
         transform="matrix(0,-1,-1,0,0,0)" />
      <rect
         transform="matrix(0,-1,-1,0,0,0)"
         style="color:#000000;display:inline;overflow:visible;visibility:visible;fill:#339194;fill-opacity:1;fill-rule:nonzero;stroke:none;stroke-width:0.42080581;marker:none;enable-background:accumulate"
         id="rect57863"
         width="40.3899"
         height="37.883915"
         x="-1056.8696"
         y="-557.66888" />
      <rect
         y="-557.66888"
         x="-1016.4797"
         height="37.883915"
         width="40.3899"
         id="rect57865"
         style="color:#000000;display:inline;overflow:visible;visibility:visible;fill:#33b680;fill-opacity:1;fill-rule:nonzero;stroke:none;stroke-width:0.42080581;marker:none;enable-background:accumulate"
         transform="matrix(0,-1,-1,0,0,0)" />
      <rect
         transform="matrix(0,-1,-1,0,0,0)"
         style="color:#000000;display:inline;overflow:visible;visibility:visible;fill:#3d5eb0;fill-opacity:1;fill-rule:nonzero;stroke:none;stroke-width:0.42080581;marker:none;enable-background:accumulate"
         id="rect57867"
         width="40.3899"
         height="37.883915"
         x="-1097.2595"
         y="-557.66888" />
    </g>
    <g
       id="g36637"
       transform="matrix(0.49500396,-0.50517975,0.50517975,0.49500396,-603.86751,462.39949)" />
    <text
       xml:space="preserve"
       style="color:#000000;font-style:normal;font-variant:normal;font-weight:900;font-stretch:normal;font-size:25.4278px;line-height:0%;font-family:Lato;-inkscape-font-specification:'Lato, Heavy';font-variant-ligatures:normal;font-variant-caps:normal;font-variant-numeric:normal;font-feature-settings:normal;text-align:center;letter-spacing:0px;word-spacing:0px;writing-mode:lr-tb;text-anchor:middle;clip-rule:nonzero;display:inline;overflow:visible;visibility:visible;opacity:1;isolation:auto;mix-blend-mode:normal;color-interpolation:sRGB;color-interpolation-filters:linearRGB;solid-color:#000000;solid-opacity:1;vector-effect:none;fill:#339194;fill-opacity:1;fill-rule:nonzero;stroke:none;stroke-width:0.372533;stroke-linecap:butt;stroke-linejoin:miter;stroke-miterlimit:4;stroke-dasharray:none;stroke-dashoffset:0;stroke-opacity:1;marker:none;color-rendering:auto;image-rendering:auto;shape-rendering:auto;text-rendering:auto;enable-background:accumulate"
       x="245.77621"
       y="721.48584"
       id="text6115-7-8"><tspan
         sodipodi:role="line"
         id="tspan6113-0-8"
         x="245.77621"
         y="721.48584"
         style="color:#000000;font-style:normal;font-variant:normal;font-weight:900;font-stretch:normal;font-size:25.4278px;line-height:125%;font-family:Lato;-inkscape-font-specification:'Lato, Heavy';font-variant-ligatures:normal;font-variant-caps:normal;font-variant-numeric:normal;font-feature-settings:normal;text-align:center;writing-mode:lr-tb;text-anchor:middle;clip-rule:nonzero;display:inline;overflow:visible;visibility:visible;isolation:auto;mix-blend-mode:normal;color-interpolation:sRGB;color-interpolation-filters:linearRGB;solid-color:#000000;solid-opacity:1;vector-effect:none;fill:#339194;fill-opacity:1;fill-rule:nonzero;stroke:none;stroke-width:0.372533;stroke-linecap:butt;stroke-linejoin:miter;stroke-miterlimit:4;stroke-dasharray:none;stroke-dashoffset:0;stroke-opacity:1;marker:none;color-rendering:auto;image-rendering:auto;shape-rendering:auto;text-rendering:auto;enable-background:accumulate">Weak &amp; strong coloring</tspan></text>
    <g
       transform="matrix(0.9323469,0,0,0.9323469,242.09182,-152.19087)"
       id="g8990">
      <rect
         style="color:#000000;clip-rule:nonzero;display:inline;overflow:visible;visibility:visible;opacity:1;isolation:auto;mix-blend-mode:normal;color-interpolation:sRGB;color-interpolation-filters:linearRGB;solid-color:#000000;solid-opacity:1;fill:#e4cb9e;fill-opacity:1;fill-rule:evenodd;stroke:none;stroke-width:11.73333359;stroke-linecap:round;stroke-linejoin:round;stroke-miterlimit:4;stroke-dasharray:none;stroke-dashoffset:0;stroke-opacity:1;marker:none;color-rendering:auto;image-rendering:auto;shape-rendering:auto;text-rendering:auto;enable-background:accumulate"
         id="rect8909"
         width="187.80952"
         height="12.571428"
         x="38.476192"
         y="840.99445"
         rx="5.4209857"
         ry="5.4209857" />
      <path
         style="color:#000000;clip-rule:nonzero;display:inline;overflow:visible;visibility:visible;opacity:1;isolation:auto;mix-blend-mode:normal;color-interpolation:sRGB;color-interpolation-filters:linearRGB;solid-color:#000000;solid-opacity:1;fill:none;fill-opacity:1;fill-rule:evenodd;stroke:#fb6b41;stroke-width:4.26666689;stroke-linecap:round;stroke-linejoin:round;stroke-miterlimit:4;stroke-dasharray:none;stroke-dashoffset:0;stroke-opacity:1;color-rendering:auto;image-rendering:auto;shape-rendering:auto;text-rendering:auto;enable-background:accumulate"
         d="m 105.37143,847.24219 c 0.13014,-3.75137 1.64913,-7.43884 4.19902,-10.19344 2.54988,-2.75459 6.10932,-4.55326 9.8395,-4.97213 4.3119,-0.48419 8.80166,0.90357 12.08828,3.73643 3.28661,2.83286 5.32139,7.06883 5.47845,11.40499 0.78524,-7.60347 4.23496,-14.90547 9.60966,-20.34072 5.3747,-5.43525 12.63759,-8.96654 20.23179,-9.83691 8.88479,-1.01828 18.13603,1.66049 25.10212,7.26851 6.9661,5.60802 11.55842,14.07394 12.4607,22.97126 0.12283,6.75958 -2.51238,13.52901 -7.17306,18.42646 -4.66068,4.89746 -11.29133,7.86461 -18.0487,8.07662 -7.03585,0.22075 -14.11665,-2.55894 -19.12331,-7.50718 -5.00667,-4.94825 -7.86928,-11.99594 -7.73112,-19.03389"
         id="path8972"
         inkscape:path-effect="#path-effect61898-4"
         inkscape:original-d="m 105.37143,847.24219 c 0,0 2.26587,-16.30493 14.03852,-15.16557 10.62195,1.02799 17.56673,15.14142 17.56673,15.14142 0,0 12.48133,-32.46949 29.84145,-30.17763 13.16642,1.7382 37.56282,30.23977 37.56282,30.23977 0,0 -12.74651,27.20601 -25.22176,26.50308 -11.05503,-0.6229 -26.85443,-26.54107 -26.85443,-26.54107"
         inkscape:connector-curvature="0"
         sodipodi:nodetypes="cscscsc" />
      <rect
         ry="5.4209857"
         rx="5.4209852"
         y="840.99445"
         x="73.904762"
         height="12.571428"
         width="46.666668"
         id="rect8968"
         style="color:#000000;clip-rule:nonzero;display:inline;overflow:visible;visibility:visible;opacity:1;isolation:auto;mix-blend-mode:normal;color-interpolation:sRGB;color-interpolation-filters:linearRGB;solid-color:#000000;solid-opacity:1;fill:#a70267;fill-opacity:1;fill-rule:evenodd;stroke:none;stroke-width:11.73333359;stroke-linecap:round;stroke-linejoin:round;stroke-miterlimit:4;stroke-dasharray:none;stroke-dashoffset:0;stroke-opacity:1;marker:none;color-rendering:auto;image-rendering:auto;shape-rendering:auto;text-rendering:auto;enable-background:accumulate" />
      <circle
         style="color:#000000;clip-rule:nonzero;display:inline;overflow:visible;visibility:visible;opacity:1;isolation:auto;mix-blend-mode:normal;color-interpolation:sRGB;color-interpolation-filters:linearRGB;solid-color:#000000;solid-opacity:1;fill:#339194;fill-opacity:1;fill-rule:nonzero;stroke:none;stroke-width:0.87379354;stroke-linecap:butt;stroke-linejoin:miter;stroke-miterlimit:4;stroke-dasharray:none;stroke-dashoffset:0;stroke-opacity:1;marker:none;color-rendering:auto;image-rendering:auto;shape-rendering:auto;text-rendering:auto;enable-background:accumulate"
         id="circle6250-2"
         cx="152.30475"
         cy="847.24219"
         r="3.6524086" />
      <circle
         r="3.6524086"
         cy="847.24219"
         cx="88.304764"
         id="circle8941"
         style="color:#000000;clip-rule:nonzero;display:inline;overflow:visible;visibility:visible;opacity:1;isolation:auto;mix-blend-mode:normal;color-interpolation:sRGB;color-interpolation-filters:linearRGB;solid-color:#000000;solid-opacity:1;fill:#339194;fill-opacity:1;fill-rule:nonzero;stroke:none;stroke-width:0.87379354;stroke-linecap:butt;stroke-linejoin:miter;stroke-miterlimit:4;stroke-dasharray:none;stroke-dashoffset:0;stroke-opacity:1;marker:none;color-rendering:auto;image-rendering:auto;shape-rendering:auto;text-rendering:auto;enable-background:accumulate" />
      <circle
         style="color:#000000;clip-rule:nonzero;display:inline;overflow:visible;visibility:visible;opacity:1;isolation:auto;mix-blend-mode:normal;color-interpolation:sRGB;color-interpolation-filters:linearRGB;solid-color:#000000;solid-opacity:1;fill:#339194;fill-opacity:1;fill-rule:nonzero;stroke:none;stroke-width:0.87379354;stroke-linecap:butt;stroke-linejoin:miter;stroke-miterlimit:4;stroke-dasharray:none;stroke-dashoffset:0;stroke-opacity:1;marker:none;color-rendering:auto;image-rendering:auto;shape-rendering:auto;text-rendering:auto;enable-background:accumulate"
         id="circle8970"
         cx="105.37143"
         cy="847.24219"
         r="3.6524086" />
    </g>
    <path
       style="color:#000000;clip-rule:nonzero;display:inline;overflow:visible;visibility:visible;opacity:1;isolation:auto;mix-blend-mode:normal;color-interpolation:sRGB;color-interpolation-filters:linearRGB;solid-color:#000000;solid-opacity:1;vector-effect:none;fill:#fdfcf7;fill-opacity:1;fill-rule:nonzero;stroke:none;stroke-width:0.608628;stroke-linecap:butt;stroke-linejoin:miter;stroke-miterlimit:4;stroke-dasharray:none;stroke-dashoffset:0;stroke-opacity:1;marker:none;color-rendering:auto;image-rendering:auto;shape-rendering:auto;text-rendering:auto;enable-background:accumulate"
       d="M 19.694248,914.33038 H 465.25232 V 979.9018 H 19.694248 Z"
       id="rect3672"
       inkscape:connector-curvature="0"
       sodipodi:nodetypes="ccccc" />
    <g
       id="g8170">
      <path
         sodipodi:nodetypes="sssssssss"
         inkscape:connector-curvature="0"
         id="rect27291"
         d="M 49.019218,787.9077 H 454.01437 c 2.80005,0 5.05424,2.25419 5.05424,5.05423 v 1.61246 c 0,2.80004 -2.25419,5.05423 -5.05424,5.05423 H 49.019218 c -2.800048,0 -5.054239,-2.25419 -5.054239,-5.05423 v -1.61246 c 0,-2.80004 2.254191,-5.05423 5.054239,-5.05423 z"
         style="color:#000000;clip-rule:nonzero;display:inline;overflow:visible;visibility:visible;opacity:1;isolation:auto;mix-blend-mode:normal;color-interpolation:sRGB;color-interpolation-filters:linearRGB;solid-color:#000000;solid-opacity:1;fill:#e4cb9e;fill-opacity:1;fill-rule:evenodd;stroke:none;stroke-width:10.9395;stroke-linecap:round;stroke-linejoin:round;stroke-miterlimit:4;stroke-dasharray:none;stroke-dashoffset:0;stroke-opacity:1;marker:none;color-rendering:auto;image-rendering:auto;shape-rendering:auto;text-rendering:auto;enable-background:accumulate" />
      <path
         sodipodi:nodetypes="cscssssssc"
         inkscape:connector-curvature="0"
         id="path27293"
         d="m 176.33453,793.73276 c 0.12134,-3.49758 1.53756,-6.93558 3.91494,-9.50382 2.37738,-2.56824 5.69601,-4.24522 9.17383,-4.63575 4.02019,-0.45143 8.20619,0.84244 11.27046,3.48365 3.06427,2.6412 4.96138,6.5906 5.10782,10.6334 2.20429,-10.15016 8.80153,-19.26682 17.75381,-24.53383 8.95229,-5.267 20.12571,-6.60556 30.06877,-3.60219 7.38992,2.23217 13.93393,6.68412 19.72722,11.78621 5.79329,5.10208 10.93859,10.88798 16.41787,16.3259 4.07405,4.04329 8.36137,7.91662 13.19325,11.01484 4.83189,3.09822 10.24814,5.4101 15.94553,6.10705 5.6974,0.69696 11.69185,-0.30535 16.54361,-3.37235 2.42587,-1.53351 4.54405,-3.56742 6.10597,-5.9751 1.56193,-2.40767 2.55982,-5.19008 2.80242,-8.04974 0.26935,-3.17494 -0.39621,-6.40384 -1.76117,-9.28302 -1.36496,-2.87918 -3.41523,-5.41236 -5.84855,-7.46949 -4.86664,-4.11426 -11.13668,-6.26594 -17.43552,-7.23337 -10.04387,-1.54263 -20.55331,-0.21917 -29.77956,4.0394 -9.22624,4.25858 -17.10932,11.47492 -21.90523,20.43362 -1.57643,2.94475 -2.8237,6.06286 -4.52099,8.93964 -1.6973,2.87677 -3.92565,5.56349 -6.90727,7.06901 -2.24199,1.13205 -4.84468,1.53563 -7.32423,1.1357 -2.47954,-0.39992 -4.82336,-1.60133 -6.59575,-3.38086 -1.77238,-1.77953 -2.96433,-4.12817 -3.35427,-6.60931 -0.38994,-2.48113 0.0241,-5.08217 1.16518,-7.31959"
         style="color:#000000;clip-rule:nonzero;display:inline;overflow:visible;visibility:visible;opacity:1;isolation:auto;mix-blend-mode:normal;color-interpolation:sRGB;color-interpolation-filters:linearRGB;solid-color:#000000;solid-opacity:1;fill:none;fill-opacity:1;fill-rule:evenodd;stroke:#3d5eb0;stroke-width:3.97801;stroke-linecap:round;stroke-linejoin:round;stroke-miterlimit:4;stroke-dasharray:none;stroke-dashoffset:0;stroke-opacity:1;color-rendering:auto;image-rendering:auto;shape-rendering:auto;text-rendering:auto;enable-background:accumulate"
         inkscape:original-d="m 176.33453,793.73276 c 0,0 2.11257,-15.20185 13.08877,-14.13957 9.90334,0.95844 16.37828,14.11705 16.37828,14.11705 0,0 31.63693,-30.27281 47.82258,-28.13602 6.37796,0.84201 35.72635,44.48621 36.14509,28.11211 1.81909,-71.13301 65.89256,-11.65225 54.59078,-0.2753 -5.24191,5.27679 -7.44743,-22.32136 -25.04524,-23.98588 -17.59781,-1.66452 -50.58793,22.60459 -51.68479,24.47302 -4.38358,7.4671 -3.67637,16.44543 -11.42826,16.00865 -10.30712,-0.58077 -16.10907,-16.17406 -16.10907,-16.17406"
         inkscape:path-effect="#path-effect1418" />
      <path
         style="color:#000000;clip-rule:nonzero;display:inline;overflow:visible;visibility:visible;opacity:1;isolation:auto;mix-blend-mode:normal;color-interpolation:sRGB;color-interpolation-filters:linearRGB;solid-color:#000000;solid-opacity:1;fill:#a70267;fill-opacity:1;fill-rule:evenodd;stroke:none;stroke-width:10.9395;stroke-linecap:round;stroke-linejoin:round;stroke-miterlimit:4;stroke-dasharray:none;stroke-dashoffset:0;stroke-opacity:1;marker:none;color-rendering:auto;image-rendering:auto;shape-rendering:auto;text-rendering:auto;enable-background:accumulate"
         d="m 168.556,787.9077 h 20.89596 c 2.80004,0 5.05423,2.25419 5.05423,5.05423 v 1.61246 c 0,2.80004 -2.25419,5.05423 -5.05423,5.05423 H 168.556 c -2.80004,0 -5.05423,-2.25419 -5.05423,-5.05423 v -1.61246 c 0,-2.80004 2.25419,-5.05423 5.05423,-5.05423 z"
         id="rect27295"
         inkscape:connector-curvature="0"
         sodipodi:nodetypes="sssssssss" />
      <circle
         r="3.4053118"
         cy="793.73273"
         cx="240.0927"
         id="circle27297"
         style="color:#000000;clip-rule:nonzero;display:inline;overflow:visible;visibility:visible;opacity:1;isolation:auto;mix-blend-mode:normal;color-interpolation:sRGB;color-interpolation-filters:linearRGB;solid-color:#000000;solid-opacity:1;fill:#339194;fill-opacity:1;fill-rule:nonzero;stroke:none;stroke-width:0.814679;stroke-linecap:butt;stroke-linejoin:miter;stroke-miterlimit:4;stroke-dasharray:none;stroke-dashoffset:0;stroke-opacity:1;marker:none;color-rendering:auto;image-rendering:auto;shape-rendering:auto;text-rendering:auto;enable-background:accumulate" />
      <circle
         r="3.4053118"
         cy="793.73273"
         cx="176.33456"
         id="circle27301"
         style="color:#000000;clip-rule:nonzero;display:inline;overflow:visible;visibility:visible;opacity:1;isolation:auto;mix-blend-mode:normal;color-interpolation:sRGB;color-interpolation-filters:linearRGB;solid-color:#000000;solid-opacity:1;fill:#339194;fill-opacity:1;fill-rule:nonzero;stroke:none;stroke-width:0.814679;stroke-linecap:butt;stroke-linejoin:miter;stroke-miterlimit:4;stroke-dasharray:none;stroke-dashoffset:0;stroke-opacity:1;marker:none;color-rendering:auto;image-rendering:auto;shape-rendering:auto;text-rendering:auto;enable-background:accumulate" />
      <circle
         style="color:#000000;clip-rule:nonzero;display:inline;overflow:visible;visibility:visible;opacity:1;isolation:auto;mix-blend-mode:normal;color-interpolation:sRGB;color-interpolation-filters:linearRGB;solid-color:#000000;solid-opacity:1;fill:#fdfcf7;fill-opacity:1;fill-rule:nonzero;stroke:none;stroke-width:0.814679;stroke-linecap:butt;stroke-linejoin:miter;stroke-miterlimit:4;stroke-dasharray:none;stroke-dashoffset:0;stroke-opacity:1;marker:none;color-rendering:auto;image-rendering:auto;shape-rendering:auto;text-rendering:auto;enable-background:accumulate"
         id="circle29542"
         cx="205.76315"
         cy="793.73273"
         r="3.4053118" />
      <circle
         r="3.4053118"
         cy="793.73273"
         cx="289.76318"
         id="circle29544"
         style="color:#000000;clip-rule:nonzero;display:inline;overflow:visible;visibility:visible;opacity:1;isolation:auto;mix-blend-mode:normal;color-interpolation:sRGB;color-interpolation-filters:linearRGB;solid-color:#000000;solid-opacity:1;fill:#fdfcf7;fill-opacity:1;fill-rule:nonzero;stroke:none;stroke-width:0.814679;stroke-linecap:butt;stroke-linejoin:miter;stroke-miterlimit:4;stroke-dasharray:none;stroke-dashoffset:0;stroke-opacity:1;marker:none;color-rendering:auto;image-rendering:auto;shape-rendering:auto;text-rendering:auto;enable-background:accumulate" />
      <circle
         style="color:#000000;clip-rule:nonzero;display:inline;overflow:visible;visibility:visible;opacity:1;isolation:auto;mix-blend-mode:normal;color-interpolation:sRGB;color-interpolation-filters:linearRGB;solid-color:#000000;solid-opacity:1;fill:#fdfcf7;fill-opacity:1;fill-rule:nonzero;stroke:none;stroke-width:0.814679;stroke-linecap:butt;stroke-linejoin:miter;stroke-miterlimit:4;stroke-dasharray:none;stroke-dashoffset:0;stroke-opacity:1;marker:none;color-rendering:auto;image-rendering:auto;shape-rendering:auto;text-rendering:auto;enable-background:accumulate"
         id="circle29546"
         cx="344.12027"
         cy="793.73273"
         r="3.4053118" />
      <circle
         r="3.4053118"
         cy="793.73273"
         cx="267.97751"
         id="circle29548"
         style="color:#000000;clip-rule:nonzero;display:inline;overflow:visible;visibility:visible;opacity:1;isolation:auto;mix-blend-mode:normal;color-interpolation:sRGB;color-interpolation-filters:linearRGB;solid-color:#000000;solid-opacity:1;fill:#fdfcf7;fill-opacity:1;fill-rule:nonzero;stroke:none;stroke-width:0.814679;stroke-linecap:butt;stroke-linejoin:miter;stroke-miterlimit:4;stroke-dasharray:none;stroke-dashoffset:0;stroke-opacity:1;marker:none;color-rendering:auto;image-rendering:auto;shape-rendering:auto;text-rendering:auto;enable-background:accumulate" />
      <path
         sodipodi:nodetypes="sssssssss"
         inkscape:connector-curvature="0"
         id="path531"
         d="m 136.55601,787.9077 h 12.89596 c 2.80005,0 5.05424,2.25419 5.05424,5.05423 v 1.61246 c 0,2.80004 -2.25419,5.05423 -5.05424,5.05423 h -12.89596 c -2.80005,0 -5.05424,-2.25419 -5.05424,-5.05423 v -1.61246 c 0,-2.80004 2.25419,-5.05423 5.05424,-5.05423 z"
         style="color:#000000;clip-rule:nonzero;display:inline;overflow:visible;visibility:visible;opacity:1;isolation:auto;mix-blend-mode:normal;color-interpolation:sRGB;color-interpolation-filters:linearRGB;solid-color:#000000;solid-opacity:1;fill:#a70267;fill-opacity:1;fill-rule:evenodd;stroke:none;stroke-width:10.9395;stroke-linecap:round;stroke-linejoin:round;stroke-miterlimit:4;stroke-dasharray:none;stroke-dashoffset:0;stroke-opacity:1;marker:none;color-rendering:auto;image-rendering:auto;shape-rendering:auto;text-rendering:auto;enable-background:accumulate" />
    </g>
    <path
       inkscape:connector-curvature="0"
       style="fill:#4a1234;fill-opacity:1;stroke:none;stroke-width:0"
       d="m 33.824185,787.55255 c -0.400718,-0.57244 -0.915925,-1.14491 -1.259398,-1.43112 0.114493,0 0.286227,0 0.457964,0 0.286226,0 0.572454,-0.0572 0.801434,-0.17176 z m -10.418649,5.78179 c 0,-5.09483 1.889097,-8.35782 4.579627,-8.35782 2.289812,0 5.152077,2.34707 5.781776,4.35063 0.114493,0.45797 0.171731,0.68696 0.51521,0.68696 0.457961,0 0.457961,-0.40071 0.457961,-0.85868 v -4.23616 c 0,-0.45794 0,-0.85867 -0.457961,-0.85867 0,0 -0.400719,0 -0.457964,0.45797 -0.05725,0.45795 -0.286227,0.74419 -0.801434,0.74419 -0.915926,0 -1.83185,-0.40073 -2.175323,-0.57246 -0.973171,-0.40073 -1.774604,-0.6297 -2.976756,-0.6297 -4.236154,0 -8.93027,2.69054 -8.93027,9.21649 0,6.1825 4.236154,9.2165 9.102005,9.2165 2.232568,0 4.52238,-0.51522 6.239742,-1.43112 0.686942,-0.34347 0.686942,-0.34347 0.686942,-1.08769 v -2.34704 c 0,-1.3739 0.686944,-2.00359 1.60287,-2.06083 0.457961,-0.0572 0.515207,-0.40072 0.515207,-0.45795 0,-0.45797 -0.457962,-0.45797 -0.915926,-0.45797 H 29.35905 c -0.515208,0 -0.915925,0 -0.915925,0.45797 0,0.22897 0.114493,0.4007 0.457964,0.45795 2.118075,0.17174 2.118075,1.71737 2.118075,2.46156 v 1.88907 c 0,0.74418 0,1.14493 -0.744189,1.43114 -0.744189,0.28624 -1.946339,0.28624 -2.175322,0.28624 -1.030415,0 -2.80502,-0.22901 -3.892682,-2.86227 -0.572453,-1.48837 -0.801435,-3.43472 -0.801435,-5.43831 z m 1.087661,7.61363 c -3.377473,-1.37388 -4.694116,-4.35063 -4.694116,-7.67088 0,-4.69412 2.576041,-6.92669 4.980343,-7.78536 v 0.0572 c -0.686943,0.62971 -2.289812,2.86228 -2.289812,7.78538 0,2.00357 0.228981,5.49555 2.003585,7.61364 z m 7.327402,0.11455 c 0.114493,-0.40072 0.114493,-1.37388 0.114493,-2.11807 0,-1.8891 0,-2.63329 -0.858679,-3.43472 h 3.663698 c -0.686943,0.85868 -0.686943,1.71737 -0.686943,2.06084 v 2.63329 c -0.343472,0.17175 -1.202153,0.57244 -2.232569,0.85866 z m 0,0"
       id="path38493-1" />
    <g
       id="g34859"
       transform="translate(0,80)">
      <path
         sodipodi:nodetypes="sssssssss"
         inkscape:connector-curvature="0"
         id="rect27291-5"
         d="M 49.019218,787.90795 H 454.01437 c 2.80005,0 5.05424,2.25419 5.05424,5.05423 v 1.61246 c 0,2.80004 -2.25419,5.05423 -5.05424,5.05423 H 49.019218 c -2.800048,0 -5.054239,-2.25419 -5.054239,-5.05423 v -1.61246 c 0,-2.80004 2.254191,-5.05423 5.054239,-5.05423 z"
         style="color:#000000;clip-rule:nonzero;display:inline;overflow:visible;visibility:visible;isolation:auto;mix-blend-mode:normal;color-interpolation:sRGB;color-interpolation-filters:linearRGB;solid-color:#000000;solid-opacity:1;fill:#e4cb9e;fill-opacity:1;fill-rule:evenodd;stroke:none;stroke-width:10.9395;stroke-linecap:round;stroke-linejoin:round;stroke-miterlimit:4;stroke-dasharray:none;stroke-dashoffset:0;stroke-opacity:1;marker:none;color-rendering:auto;image-rendering:auto;shape-rendering:auto;text-rendering:auto;enable-background:accumulate" />
      <path
         style="color:#000000;clip-rule:nonzero;display:inline;overflow:visible;visibility:visible;isolation:auto;mix-blend-mode:normal;color-interpolation:sRGB;color-interpolation-filters:linearRGB;solid-color:#000000;solid-opacity:1;fill:#a70267;fill-opacity:1;fill-rule:evenodd;stroke:none;stroke-width:10.9395;stroke-linecap:round;stroke-linejoin:round;stroke-miterlimit:4;stroke-dasharray:none;stroke-dashoffset:0;stroke-opacity:1;marker:none;color-rendering:auto;image-rendering:auto;shape-rendering:auto;text-rendering:auto;enable-background:accumulate"
         d="m 186.556,787.90795 h 20.89596 c 2.80004,0 5.05423,2.25419 5.05423,5.05423 v 1.61246 c 0,2.80004 -2.25419,5.05423 -5.05423,5.05423 H 186.556 c -2.80004,0 -5.05423,-2.25419 -5.05423,-5.05423 v -1.61246 c 0,-2.80004 2.25419,-5.05423 5.05423,-5.05423 z"
         id="rect27295-4"
         inkscape:connector-curvature="0"
         sodipodi:nodetypes="sssssssss" />
      <path
         sodipodi:nodetypes="cssssssc"
         inkscape:connector-curvature="0"
         inkscape:original-d="m 205.80158,793.71049 c 0,0 31.63693,-30.27281 47.82258,-28.13602 6.37796,0.84201 35.72635,44.48621 36.14509,28.11211 1.81909,-71.13301 65.89256,-11.65225 54.59078,-0.2753 -5.24191,5.27679 -7.44743,-22.32136 -25.04524,-23.98588 -17.59781,-1.66452 -50.58793,22.60459 -51.68479,24.47302 -4.38358,7.4671 -3.67637,16.44543 -11.42826,16.00865 -10.30712,-0.58077 -16.10907,-16.17406 -16.10907,-16.17406"
         inkscape:path-effect="#path-effect1418-5"
         id="path27293-7"
         d="m 205.80158,793.71049 c 2.20429,-10.15016 8.80153,-19.26682 17.75381,-24.53383 8.95229,-5.267 20.12571,-6.60556 30.06877,-3.60219 7.38992,2.23217 13.93393,6.68412 19.72722,11.78621 5.79329,5.10208 10.93859,10.88798 16.41787,16.3259 4.07405,4.04329 8.36137,7.91662 13.19325,11.01484 4.83189,3.09822 10.24814,5.4101 15.94553,6.10705 5.6974,0.69696 11.69185,-0.30535 16.54361,-3.37235 2.42587,-1.53351 4.54405,-3.56742 6.10597,-5.9751 1.56193,-2.40767 2.55982,-5.19008 2.80242,-8.04974 0.26935,-3.17494 -0.39621,-6.40384 -1.76117,-9.28302 -1.36496,-2.87918 -3.41523,-5.41236 -5.84855,-7.46949 -4.86664,-4.11426 -11.13668,-6.26594 -17.43552,-7.23337 -10.04387,-1.54263 -20.55331,-0.21917 -29.77956,4.0394 -9.22624,4.25858 -17.10932,11.47492 -21.90523,20.43362 -1.57643,2.94475 -2.8237,6.06286 -4.52099,8.93964 -1.6973,2.87677 -3.92565,5.56349 -6.90727,7.06901 -2.24199,1.13205 -4.84468,1.53563 -7.32423,1.1357 -2.47954,-0.39992 -4.82336,-1.60133 -6.59575,-3.38086 -1.77238,-1.77953 -2.96433,-4.12817 -3.35427,-6.60931 -0.38994,-2.48113 0.0241,-5.08217 1.16518,-7.31959"
         style="color:#000000;clip-rule:nonzero;display:inline;overflow:visible;visibility:visible;isolation:auto;mix-blend-mode:normal;color-interpolation:sRGB;color-interpolation-filters:linearRGB;solid-color:#000000;solid-opacity:1;fill:none;fill-opacity:1;fill-rule:evenodd;stroke:#3d5eb0;stroke-width:3.97801;stroke-linecap:round;stroke-linejoin:round;stroke-miterlimit:4;stroke-dasharray:none;stroke-dashoffset:0;stroke-opacity:1;color-rendering:auto;image-rendering:auto;shape-rendering:auto;text-rendering:auto;enable-background:accumulate" />
      <circle
         r="3.4053118"
         cy="793.73297"
         cx="240.0927"
         id="circle27297-6"
         style="color:#000000;clip-rule:nonzero;display:inline;overflow:visible;visibility:visible;isolation:auto;mix-blend-mode:normal;color-interpolation:sRGB;color-interpolation-filters:linearRGB;solid-color:#000000;solid-opacity:1;fill:#339194;fill-opacity:1;fill-rule:nonzero;stroke:none;stroke-width:0.814679;stroke-linecap:butt;stroke-linejoin:miter;stroke-miterlimit:4;stroke-dasharray:none;stroke-dashoffset:0;stroke-opacity:1;marker:none;color-rendering:auto;image-rendering:auto;shape-rendering:auto;text-rendering:auto;enable-background:accumulate" />
      <circle
         style="color:#000000;font-variation-settings:normal;clip-rule:nonzero;display:inline;overflow:visible;visibility:visible;isolation:auto;mix-blend-mode:normal;color-interpolation:sRGB;color-interpolation-filters:linearRGB;solid-color:#000000;solid-opacity:1;vector-effect:none;fill:#339194;fill-opacity:1;fill-rule:nonzero;stroke:none;stroke-width:0.814679;stroke-linecap:butt;stroke-linejoin:miter;stroke-miterlimit:4;stroke-dasharray:none;stroke-dashoffset:0;stroke-opacity:1;-inkscape-stroke:none;marker:none;color-rendering:auto;image-rendering:auto;shape-rendering:auto;text-rendering:auto;enable-background:accumulate;stop-color:#000000"
         id="circle29542-5"
         cx="205.76315"
         cy="793.73297"
         r="3.4053118" />
      <circle
         r="3.4053118"
         cy="793.73297"
         cx="289.76318"
         id="circle29544-6"
         style="color:#000000;clip-rule:nonzero;display:inline;overflow:visible;visibility:visible;isolation:auto;mix-blend-mode:normal;color-interpolation:sRGB;color-interpolation-filters:linearRGB;solid-color:#000000;solid-opacity:1;fill:#fdfcf7;fill-opacity:1;fill-rule:nonzero;stroke:none;stroke-width:0.814679;stroke-linecap:butt;stroke-linejoin:miter;stroke-miterlimit:4;stroke-dasharray:none;stroke-dashoffset:0;stroke-opacity:1;marker:none;color-rendering:auto;image-rendering:auto;shape-rendering:auto;text-rendering:auto;enable-background:accumulate" />
      <circle
         style="color:#000000;clip-rule:nonzero;display:inline;overflow:visible;visibility:visible;isolation:auto;mix-blend-mode:normal;color-interpolation:sRGB;color-interpolation-filters:linearRGB;solid-color:#000000;solid-opacity:1;fill:#fdfcf7;fill-opacity:1;fill-rule:nonzero;stroke:none;stroke-width:0.814679;stroke-linecap:butt;stroke-linejoin:miter;stroke-miterlimit:4;stroke-dasharray:none;stroke-dashoffset:0;stroke-opacity:1;marker:none;color-rendering:auto;image-rendering:auto;shape-rendering:auto;text-rendering:auto;enable-background:accumulate"
         id="circle29546-9"
         cx="344.12027"
         cy="793.73297"
         r="3.4053118" />
      <circle
         r="3.4053118"
         cy="793.73297"
         cx="267.97751"
         id="circle29548-3"
         style="color:#000000;clip-rule:nonzero;display:inline;overflow:visible;visibility:visible;isolation:auto;mix-blend-mode:normal;color-interpolation:sRGB;color-interpolation-filters:linearRGB;solid-color:#000000;solid-opacity:1;fill:#fdfcf7;fill-opacity:1;fill-rule:nonzero;stroke:none;stroke-width:0.814679;stroke-linecap:butt;stroke-linejoin:miter;stroke-miterlimit:4;stroke-dasharray:none;stroke-dashoffset:0;stroke-opacity:1;marker:none;color-rendering:auto;image-rendering:auto;shape-rendering:auto;text-rendering:auto;enable-background:accumulate" />
      <path
         sodipodi:nodetypes="sssssssss"
         inkscape:connector-curvature="0"
         id="path531-7"
         d="m 154.55601,787.90795 h 12.89596 c 2.80005,0 5.05424,2.25419 5.05424,5.05423 v 1.61246 c 0,2.80004 -2.25419,5.05423 -5.05424,5.05423 h -12.89596 c -2.80005,0 -5.05424,-2.25419 -5.05424,-5.05423 v -1.61246 c 0,-2.80004 2.25419,-5.05423 5.05424,-5.05423 z"
         style="color:#000000;clip-rule:nonzero;display:inline;overflow:visible;visibility:visible;isolation:auto;mix-blend-mode:normal;color-interpolation:sRGB;color-interpolation-filters:linearRGB;solid-color:#000000;solid-opacity:1;fill:#a70267;fill-opacity:1;fill-rule:evenodd;stroke:none;stroke-width:10.9395;stroke-linecap:round;stroke-linejoin:round;stroke-miterlimit:4;stroke-dasharray:none;stroke-dashoffset:0;stroke-opacity:1;marker:none;color-rendering:auto;image-rendering:auto;shape-rendering:auto;text-rendering:auto;enable-background:accumulate" />
      <path
         inkscape:connector-curvature="0"
         style="fill:#4a1234;fill-opacity:1;stroke:none;stroke-width:0"
         d="m 33.824185,787.5528 c -0.400718,-0.57244 -0.915925,-1.14491 -1.259398,-1.43112 0.114493,0 0.286227,0 0.457964,0 0.286226,0 0.572454,-0.0572 0.801434,-0.17176 z m -10.418649,5.78179 c 0,-5.09483 1.889097,-8.35782 4.579627,-8.35782 2.289812,0 5.152077,2.34707 5.781776,4.35063 0.114493,0.45797 0.171731,0.68696 0.51521,0.68696 0.457961,0 0.457961,-0.40071 0.457961,-0.85868 v -4.23616 c 0,-0.45794 0,-0.85867 -0.457961,-0.85867 0,0 -0.400719,0 -0.457964,0.45797 -0.05725,0.45795 -0.286227,0.74419 -0.801434,0.74419 -0.915926,0 -1.83185,-0.40073 -2.175323,-0.57246 -0.973171,-0.40073 -1.774604,-0.6297 -2.976756,-0.6297 -4.236154,0 -8.93027,2.69054 -8.93027,9.21649 0,6.1825 4.236154,9.2165 9.102005,9.2165 2.232568,0 4.52238,-0.51522 6.239742,-1.43112 0.686942,-0.34347 0.686942,-0.34347 0.686942,-1.08769 v -2.34704 c 0,-1.3739 0.686944,-2.00359 1.60287,-2.06083 0.457961,-0.0572 0.515207,-0.40072 0.515207,-0.45795 0,-0.45797 -0.457962,-0.45797 -0.915926,-0.45797 H 29.35905 c -0.515208,0 -0.915925,0 -0.915925,0.45797 0,0.22897 0.114493,0.4007 0.457964,0.45795 2.118075,0.17174 2.118075,1.71737 2.118075,2.46156 v 1.88907 c 0,0.74418 0,1.14493 -0.744189,1.43114 -0.744189,0.28624 -1.946339,0.28624 -2.175322,0.28624 -1.030415,0 -2.80502,-0.22901 -3.892682,-2.86227 -0.572453,-1.48837 -0.801435,-3.43472 -0.801435,-5.43831 z m 1.087661,7.61363 c -3.377473,-1.37388 -4.694116,-4.35063 -4.694116,-7.67088 0,-4.69412 2.576041,-6.92669 4.980343,-7.78536 v 0.0572 c -0.686943,0.62971 -2.289812,2.86228 -2.289812,7.78538 0,2.00357 0.228981,5.49555 2.003585,7.61364 z m 7.327402,0.11455 c 0.114493,-0.40072 0.114493,-1.37388 0.114493,-2.11807 0,-1.8891 0,-2.63329 -0.858679,-3.43472 h 3.663698 c -0.686943,0.85868 -0.686943,1.71737 -0.686943,2.06084 v 2.63329 c -0.343472,0.17175 -1.202153,0.57244 -2.232569,0.85866 z m 0,0"
         id="path38493-1-4" />
    </g>
    <g
       inkscape:label=""
       transform="matrix(1.650485,0,0,1.650485,43.654152,940.43082)"
       id="g35876"
       style="fill:#4a1234;fill-opacity:1">
      <g
         fill="#000000"
         fill-opacity="1"
         id="g57"
         transform="matrix(1.33333,0,0,1.33333,-287.798,-115.245)"
         style="fill:#4a1234;fill-opacity:1">
        <g
           id="use51"
           transform="translate(215.505,93.917999)"
           style="fill:#4a1234;fill-opacity:1">
          <path
             d="m 1.171875,-2.171875 c 0,-1.625 0.8125,-2.046875 1.34375,-2.046875 0.09375,0 0.71875,0.015625 1.0625,0.375 -0.40625,0.03125 -0.46875,0.328125 -0.46875,0.453125 0,0.265625 0.1875,0.453125 0.453125,0.453125 0.265625,0 0.46875,-0.15625 0.46875,-0.46875 0,-0.671875 -0.765625,-1.0625 -1.53125,-1.0625 -1.25,0 -2.15625,1.078125 -2.15625,2.3125 0,1.28125 0.984375,2.265625 2.140625,2.265625 1.328125,0 1.65625,-1.203125 1.65625,-1.296875 0,-0.09375 -0.109375,-0.09375 -0.140625,-0.09375 -0.078125,0 -0.109375,0.03125 -0.125,0.09375 -0.28125,0.921875 -0.9375,1.046875 -1.296875,1.046875 -0.53125,0 -1.40625,-0.421875 -1.40625,-2.03125 z m 0,0"
             id="path167"
             style="fill:#4a1234;fill-opacity:1" />
        </g>
        <g
           id="use53"
           transform="translate(219.93237,93.917999)"
           style="fill:#4a1234;fill-opacity:1">
          <path
             d="M 4.6875,-2.140625 C 4.6875,-3.40625 3.703125,-4.46875 2.5,-4.46875 c -1.25,0 -2.21875,1.09375 -2.21875,2.328125 0,1.296875 1.03125,2.25 2.203125,2.25 1.203125,0 2.203125,-0.984375 2.203125,-2.25 z m -2.1875,2 c -0.4375,0 -0.875,-0.203125 -1.140625,-0.671875 -0.25,-0.4375 -0.25,-1.046875 -0.25,-1.40625 0,-0.390625 0,-0.921875 0.234375,-1.359375 C 1.609375,-4.03125 2.078125,-4.25 2.484375,-4.25 c 0.4375,0 0.859375,0.21875 1.125,0.65625 0.265625,0.421875 0.265625,1 0.265625,1.375 0,0.359375 0,0.90625 -0.21875,1.34375 C 3.421875,-0.421875 2.984375,-0.140625 2.5,-0.140625 Z m 0,0"
             id="path171"
             style="fill:#4a1234;fill-opacity:1" />
        </g>
        <g
           id="use55"
           transform="translate(224.91368,93.917999)"
           style="fill:#4a1234;fill-opacity:1">
          <path
             d="M 1.765625,-6.921875 0.328125,-6.8125 V -6.5 c 0.703125,0 0.78125,0.0625 0.78125,0.5625 V -0.75 c 0,0.4375 -0.109375,0.4375 -0.78125,0.4375 V 0 C 0.65625,-0.015625 1.1875,-0.03125 1.4375,-0.03125 c 0.25,0 0.734375,0.015625 1.109375,0.03125 v -0.3125 c -0.671875,0 -0.78125,0 -0.78125,-0.4375 z m 0,0"
             id="path175"
             style="fill:#4a1234;fill-opacity:1" />
        </g>
      </g>
      <g
         fill="#000000"
         fill-opacity="1"
         id="g61"
         transform="matrix(1.33333,0,0,1.33333,-287.798,-115.245)"
         style="fill:#4a1234;fill-opacity:1">
        <g
           id="use59"
           transform="translate(227.681,95.412003)"
           style="fill:#4a1234;fill-opacity:1">
          <path
             d="m 1.640625,-1.40625 c 0,-0.046875 0.171875,-0.671875 0.171875,-0.703125 0.015625,-0.0625 0.21875,-0.40625 0.453125,-0.578125 0.0625,-0.046875 0.25,-0.1875 0.5625,-0.1875 0.0625,0 0.234375,0 0.375,0.09375 -0.21875,0.0625 -0.296875,0.265625 -0.296875,0.390625 0,0.140625 0.109375,0.25 0.265625,0.25 0.171875,0 0.390625,-0.125 0.390625,-0.421875 0,-0.359375 -0.375,-0.515625 -0.734375,-0.515625 -0.359375,0 -0.671875,0.15625 -0.984375,0.5 -0.125,-0.421875 -0.546875,-0.5 -0.71875,-0.5 -0.25,0 -0.421875,0.171875 -0.546875,0.359375 -0.15625,0.265625 -0.25,0.671875 -0.25,0.71875 0,0.078125 0.09375,0.078125 0.125,0.078125 0.09375,0 0.09375,-0.015625 0.140625,-0.203125 0.109375,-0.421875 0.25,-0.75 0.515625,-0.75 0.1875,0 0.234375,0.15625 0.234375,0.34375 0,0.125 -0.0625,0.390625 -0.125,0.578125 -0.046875,0.1875 -0.109375,0.46875 -0.140625,0.625 L 0.84375,-0.4375 C 0.828125,-0.34375 0.78125,-0.171875 0.78125,-0.15625 0.78125,0 0.90625,0.0625 1.015625,0.0625 1.125,0.0625 1.265625,0 1.3125,-0.125 1.328125,-0.171875 1.40625,-0.484375 1.453125,-0.65625 Z m 0,0"
             id="path179"
             style="fill:#4a1234;fill-opacity:1" />
        </g>
      </g>
      <g
         fill="#000000"
         fill-opacity="1"
         id="g65"
         transform="matrix(1.33333,0,0,1.33333,-287.798,-115.245)"
         style="fill:#4a1234;fill-opacity:1">
        <g
           id="use63"
           transform="translate(232.093,93.917999)"
           style="fill:#4a1234;fill-opacity:1">
          <path
             d="m 3.296875,2.390625 c 0,-0.03125 0,-0.046875 -0.171875,-0.21875 C 1.890625,0.921875 1.5625,-0.96875 1.5625,-2.5 c 0,-1.734375 0.375,-3.46875 1.609375,-4.703125 0.125,-0.125 0.125,-0.140625 0.125,-0.171875 0,-0.078125 -0.03125,-0.109375 -0.09375,-0.109375 -0.109375,0 -1,0.6875 -1.59375,1.953125 -0.5,1.09375 -0.625,2.203125 -0.625,3.03125 0,0.78125 0.109375,1.984375 0.65625,3.125 C 2.25,1.84375 3.09375,2.5 3.203125,2.5 c 0.0625,0 0.09375,-0.03125 0.09375,-0.109375 z m 0,0"
             id="path183"
             style="fill:#4a1234;fill-opacity:1" />
        </g>
      </g>
      <g
         fill="#000000"
         fill-opacity="1"
         id="g69"
         transform="matrix(1.33333,0,0,1.33333,-287.798,-115.245)"
         style="fill:#4a1234;fill-opacity:1">
        <g
           id="use67"
           transform="translate(235.968,93.917999)"
           style="fill:#4a1234;fill-opacity:1">
          <path
             d="m 6.546875,-2.546875 c -0.25,0.328125 -0.25,0.65625 -0.25,0.8125 v 1.015625 c -0.140625,0.078125 -0.5,0.234375 -0.890625,0.34375 0.046875,-0.15625 0.046875,-0.546875 0.046875,-0.828125 0,-0.734375 0,-1.046875 -0.328125,-1.34375 z M 3.9375,0.1875 c 0.875,0 1.75,-0.21875 2.4375,-0.5625 0.25,-0.140625 0.265625,-0.140625 0.265625,-0.421875 V -1.71875 c 0,-0.53125 0.265625,-0.78125 0.625,-0.8125 0.1875,-0.015625 0.1875,-0.15625 0.1875,-0.1875 0,-0.171875 -0.171875,-0.171875 -0.34375,-0.171875 h -2.65625 c -0.203125,0 -0.359375,0 -0.359375,0.171875 0,0.09375 0.046875,0.171875 0.1875,0.1875 0.828125,0.0625 0.828125,0.671875 0.828125,0.953125 V -0.8125 c 0,0.28125 0,0.4375 -0.296875,0.546875 C 4.5,-0.15625 4.046875,-0.15625 3.953125,-0.15625 3.546875,-0.15625 2.84375,-0.234375 2.4375,-1.28125 2.21875,-1.859375 2.125,-2.625 2.125,-3.390625 c 0,-2 0.71875,-3.28125 1.78125,-3.28125 0.90625,0 2.015625,0.9375 2.25,1.703125 0.046875,0.1875 0.078125,0.28125 0.21875,0.28125 0.171875,0 0.171875,-0.171875 0.171875,-0.34375 V -6.6875 c 0,-0.171875 0,-0.328125 -0.171875,-0.328125 -0.015625,0 -0.171875,0 -0.1875,0.171875 -0.015625,0.171875 -0.109375,0.28125 -0.3125,0.28125 -0.359375,0 -0.703125,-0.140625 -0.84375,-0.203125 -0.375,-0.171875 -0.703125,-0.25 -1.15625,-0.25 -1.65625,0 -3.5,1.046875 -3.5,3.59375 C 0.375,-1 2.03125,0.1875 3.9375,0.1875 Z m 2.25,-5.84375 c -0.15625,-0.21875 -0.34375,-0.4375 -0.5,-0.5625 0.0625,0.015625 0.140625,0.015625 0.1875,0.015625 0.109375,0 0.234375,-0.03125 0.3125,-0.078125 z M 2.546875,-0.421875 C 1.21875,-0.96875 0.71875,-2.140625 0.71875,-3.40625 c 0,-1.84375 1,-2.71875 1.9375,-3.046875 V -6.4375 c -0.25,0.25 -0.875,1.125 -0.875,3.046875 0,0.78125 0.078125,2.140625 0.765625,2.96875 z m 0,0"
             id="path187"
             style="fill:#4a1234;fill-opacity:1" />
        </g>
      </g>
      <g
         fill="#000000"
         fill-opacity="1"
         id="g73"
         transform="matrix(1.33333,0,0,1.33333,-287.798,-115.245)"
         style="fill:#4a1234;fill-opacity:1">
        <g
           id="use71"
           transform="translate(243.716,93.917999)"
           style="fill:#4a1234;fill-opacity:1">
          <path
             d="m 2.875,-2.5 c 0,-0.765625 -0.109375,-1.96875 -0.65625,-3.109375 -0.59375,-1.21875 -1.453125,-1.875 -1.546875,-1.875 -0.0625,0 -0.109375,0.046875 -0.109375,0.109375 0,0.03125 0,0.046875 0.1875,0.234375 0.984375,0.984375 1.546875,2.5625 1.546875,4.640625 0,1.71875 -0.359375,3.46875 -1.59375,4.71875 C 0.5625,2.34375 0.5625,2.359375 0.5625,2.390625 0.5625,2.453125 0.609375,2.5 0.671875,2.5 0.765625,2.5 1.671875,1.8125 2.25,0.546875 2.765625,-0.546875 2.875,-1.65625 2.875,-2.5 Z m 0,0"
             id="path191"
             style="fill:#4a1234;fill-opacity:1" />
        </g>
      </g>
      <g
         fill="#000000"
         fill-opacity="1"
         id="g77"
         transform="matrix(1.33333,0,0,1.33333,-287.798,-115.245)"
         style="fill:#4a1234;fill-opacity:1">
        <g
           id="use75"
           transform="translate(250.358,93.917999)"
           style="fill:#4a1234;fill-opacity:1">
          <path
             d="m 6.734375,-5.921875 c 0.109375,-0.0625 0.1875,-0.109375 0.1875,-0.21875 0,-0.109375 -0.09375,-0.203125 -0.203125,-0.203125 -0.046875,0 -0.140625,0.046875 -0.171875,0.0625 L 1.03125,-3.671875 c -0.171875,0.078125 -0.203125,0.140625 -0.203125,0.21875 0,0.078125 0.046875,0.15625 0.203125,0.21875 l 5.515625,2.59375 C 6.671875,-0.5625 6.6875,-0.5625 6.71875,-0.5625 c 0.109375,0 0.203125,-0.09375 0.203125,-0.203125 0,-0.125 -0.09375,-0.171875 -0.203125,-0.21875 L 1.5,-3.453125 Z m -0.1875,7.21875 c 0.125,0.0625 0.140625,0.0625 0.171875,0.0625 0.109375,0 0.203125,-0.078125 0.203125,-0.1875 C 6.921875,1.03125 6.828125,1 6.71875,0.953125 l -5.5,-2.59375 C 1.09375,-1.71875 1.0625,-1.71875 1.03125,-1.71875 c -0.125,0 -0.203125,0.09375 -0.203125,0.203125 0,0.078125 0.046875,0.15625 0.203125,0.21875 z m 0,0"
             id="path195"
             style="fill:#4a1234;fill-opacity:1" />
        </g>
      </g>
      <g
         fill="#000000"
         fill-opacity="1"
         id="g81"
         transform="matrix(1.33333,0,0,1.33333,-287.798,-115.245)"
         style="fill:#4a1234;fill-opacity:1">
        <g
           id="use79"
           transform="translate(260.87399,93.917999)"
           style="fill:#4a1234;fill-opacity:1">
          <path
             d="m 6.171875,-3.34375 c 0.171875,-0.5 0.484375,-0.640625 0.84375,-0.640625 v -0.3125 C 6.78125,-4.28125 6.5,-4.265625 6.28125,-4.265625 c -0.296875,0 -0.734375,-0.015625 -0.921875,-0.03125 v 0.3125 c 0.359375,0 0.578125,0.1875 0.578125,0.46875 0,0.0625 0,0.09375 -0.0625,0.21875 L 4.96875,-0.75 3.984375,-3.53125 C 3.953125,-3.65625 3.9375,-3.671875 3.9375,-3.71875 c 0,-0.265625 0.390625,-0.265625 0.59375,-0.265625 v -0.3125 c -0.296875,0.015625 -0.796875,0.03125 -1.046875,0.03125 -0.296875,0 -0.578125,-0.015625 -0.875,-0.03125 v 0.3125 c 0.359375,0 0.515625,0.015625 0.625,0.140625 0.046875,0.0625 0.15625,0.359375 0.21875,0.546875 L 2.609375,-0.875 1.65625,-3.53125 C 1.609375,-3.65625 1.609375,-3.671875 1.609375,-3.71875 1.609375,-3.984375 2,-3.984375 2.1875,-3.984375 v -0.3125 c -0.296875,0.015625 -0.859375,0.03125 -1.078125,0.03125 -0.046875,0 -0.578125,-0.015625 -0.9375,-0.03125 v 0.3125 c 0.5,0 0.625,0.03125 0.75,0.34375 l 1.25,3.53125 C 2.21875,0.03125 2.25,0.109375 2.375,0.109375 c 0.140625,0 0.15625,-0.0625 0.203125,-0.203125 l 1.015625,-2.8125 1.015625,2.828125 c 0.03125,0.109375 0.0625,0.1875 0.203125,0.1875 0.125,0 0.15625,-0.09375 0.1875,-0.1875 z m 0,0"
             id="path199"
             style="fill:#4a1234;fill-opacity:1" />
        </g>
      </g>
      <g
         fill="#000000"
         fill-opacity="1"
         id="g89"
         transform="matrix(1.33333,0,0,1.33333,-287.798,-115.245)"
         style="fill:#4a1234;fill-opacity:1">
        <g
           id="use83"
           transform="translate(267.79004,93.917999)"
           style="fill:#4a1234;fill-opacity:1">
          <path
             d="m 1.171875,-2.171875 c 0,-1.625 0.8125,-2.046875 1.34375,-2.046875 0.09375,0 0.71875,0.015625 1.0625,0.375 -0.40625,0.03125 -0.46875,0.328125 -0.46875,0.453125 0,0.265625 0.1875,0.453125 0.453125,0.453125 0.265625,0 0.46875,-0.15625 0.46875,-0.46875 0,-0.671875 -0.765625,-1.0625 -1.53125,-1.0625 -1.25,0 -2.15625,1.078125 -2.15625,2.3125 0,1.28125 0.984375,2.265625 2.140625,2.265625 1.328125,0 1.65625,-1.203125 1.65625,-1.296875 0,-0.09375 -0.109375,-0.09375 -0.140625,-0.09375 -0.078125,0 -0.109375,0.03125 -0.125,0.09375 -0.28125,0.921875 -0.9375,1.046875 -1.296875,1.046875 -0.53125,0 -1.40625,-0.421875 -1.40625,-2.03125 z m 0,0"
             id="path203"
             style="fill:#4a1234;fill-opacity:1" />
        </g>
        <g
           id="use85"
           transform="translate(272.21741,93.917999)"
           style="fill:#4a1234;fill-opacity:1">
          <path
             d="M 4.6875,-2.140625 C 4.6875,-3.40625 3.703125,-4.46875 2.5,-4.46875 c -1.25,0 -2.21875,1.09375 -2.21875,2.328125 0,1.296875 1.03125,2.25 2.203125,2.25 1.203125,0 2.203125,-0.984375 2.203125,-2.25 z m -2.1875,2 c -0.4375,0 -0.875,-0.203125 -1.140625,-0.671875 -0.25,-0.4375 -0.25,-1.046875 -0.25,-1.40625 0,-0.390625 0,-0.921875 0.234375,-1.359375 C 1.609375,-4.03125 2.078125,-4.25 2.484375,-4.25 c 0.4375,0 0.859375,0.21875 1.125,0.65625 0.265625,0.421875 0.265625,1 0.265625,1.375 0,0.359375 0,0.90625 -0.21875,1.34375 C 3.421875,-0.421875 2.984375,-0.140625 2.5,-0.140625 Z m 0,0"
             id="path207"
             style="fill:#4a1234;fill-opacity:1" />
        </g>
        <g
           id="use87"
           transform="translate(277.19873,93.917999)"
           style="fill:#4a1234;fill-opacity:1">
          <path
             d="M 1.765625,-6.921875 0.328125,-6.8125 V -6.5 c 0.703125,0 0.78125,0.0625 0.78125,0.5625 V -0.75 c 0,0.4375 -0.109375,0.4375 -0.78125,0.4375 V 0 C 0.65625,-0.015625 1.1875,-0.03125 1.4375,-0.03125 c 0.25,0 0.734375,0.015625 1.109375,0.03125 v -0.3125 c -0.671875,0 -0.78125,0 -0.78125,-0.4375 z m 0,0"
             id="path211"
             style="fill:#4a1234;fill-opacity:1" />
        </g>
      </g>
      <g
         fill="#000000"
         fill-opacity="1"
         id="g93"
         transform="matrix(1.33333,0,0,1.33333,-287.798,-115.245)"
         style="fill:#4a1234;fill-opacity:1">
        <g
           id="use91"
           transform="translate(279.96899,95.412003)"
           style="fill:#4a1234;fill-opacity:1">
          <path
             d="m 1.640625,-1.40625 c 0,-0.046875 0.171875,-0.671875 0.171875,-0.703125 0.015625,-0.0625 0.21875,-0.40625 0.453125,-0.578125 0.0625,-0.046875 0.25,-0.1875 0.5625,-0.1875 0.0625,0 0.234375,0 0.375,0.09375 -0.21875,0.0625 -0.296875,0.265625 -0.296875,0.390625 0,0.140625 0.109375,0.25 0.265625,0.25 0.171875,0 0.390625,-0.125 0.390625,-0.421875 0,-0.359375 -0.375,-0.515625 -0.734375,-0.515625 -0.359375,0 -0.671875,0.15625 -0.984375,0.5 -0.125,-0.421875 -0.546875,-0.5 -0.71875,-0.5 -0.25,0 -0.421875,0.171875 -0.546875,0.359375 -0.15625,0.265625 -0.25,0.671875 -0.25,0.71875 0,0.078125 0.09375,0.078125 0.125,0.078125 0.09375,0 0.09375,-0.015625 0.140625,-0.203125 0.109375,-0.421875 0.25,-0.75 0.515625,-0.75 0.1875,0 0.234375,0.15625 0.234375,0.34375 0,0.125 -0.0625,0.390625 -0.125,0.578125 -0.046875,0.1875 -0.109375,0.46875 -0.140625,0.625 L 0.84375,-0.4375 C 0.828125,-0.34375 0.78125,-0.171875 0.78125,-0.15625 0.78125,0 0.90625,0.0625 1.015625,0.0625 1.125,0.0625 1.265625,0 1.3125,-0.125 1.328125,-0.171875 1.40625,-0.484375 1.453125,-0.65625 Z m 0,0"
             id="path215"
             style="fill:#4a1234;fill-opacity:1" />
        </g>
      </g>
      <g
         fill="#000000"
         fill-opacity="1"
         id="g97"
         transform="matrix(1.33333,0,0,1.33333,-287.798,-115.245)"
         style="fill:#4a1234;fill-opacity:1">
        <g
           id="use95"
           transform="translate(284.38101,93.917999)"
           style="fill:#4a1234;fill-opacity:1">
          <path
             d="m 3.296875,2.390625 c 0,-0.03125 0,-0.046875 -0.171875,-0.21875 C 1.890625,0.921875 1.5625,-0.96875 1.5625,-2.5 c 0,-1.734375 0.375,-3.46875 1.609375,-4.703125 0.125,-0.125 0.125,-0.140625 0.125,-0.171875 0,-0.078125 -0.03125,-0.109375 -0.09375,-0.109375 -0.109375,0 -1,0.6875 -1.59375,1.953125 -0.5,1.09375 -0.625,2.203125 -0.625,3.03125 0,0.78125 0.109375,1.984375 0.65625,3.125 C 2.25,1.84375 3.09375,2.5 3.203125,2.5 c 0.0625,0 0.09375,-0.03125 0.09375,-0.109375 z m 0,0"
             id="path219"
             style="fill:#4a1234;fill-opacity:1" />
        </g>
      </g>
      <g
         fill="#000000"
         fill-opacity="1"
         id="g101"
         transform="matrix(1.33333,0,0,1.33333,-287.798,-115.245)"
         style="fill:#4a1234;fill-opacity:1">
        <g
           id="use99"
           transform="translate(288.255,93.917999)"
           style="fill:#4a1234;fill-opacity:1">
          <path
             d="m 6.546875,-2.546875 c -0.25,0.328125 -0.25,0.65625 -0.25,0.8125 v 1.015625 c -0.140625,0.078125 -0.5,0.234375 -0.890625,0.34375 0.046875,-0.15625 0.046875,-0.546875 0.046875,-0.828125 0,-0.734375 0,-1.046875 -0.328125,-1.34375 z M 3.9375,0.1875 c 0.875,0 1.75,-0.21875 2.4375,-0.5625 0.25,-0.140625 0.265625,-0.140625 0.265625,-0.421875 V -1.71875 c 0,-0.53125 0.265625,-0.78125 0.625,-0.8125 0.1875,-0.015625 0.1875,-0.15625 0.1875,-0.1875 0,-0.171875 -0.171875,-0.171875 -0.34375,-0.171875 h -2.65625 c -0.203125,0 -0.359375,0 -0.359375,0.171875 0,0.09375 0.046875,0.171875 0.1875,0.1875 0.828125,0.0625 0.828125,0.671875 0.828125,0.953125 V -0.8125 c 0,0.28125 0,0.4375 -0.296875,0.546875 C 4.5,-0.15625 4.046875,-0.15625 3.953125,-0.15625 3.546875,-0.15625 2.84375,-0.234375 2.4375,-1.28125 2.21875,-1.859375 2.125,-2.625 2.125,-3.390625 c 0,-2 0.71875,-3.28125 1.78125,-3.28125 0.90625,0 2.015625,0.9375 2.25,1.703125 0.046875,0.1875 0.078125,0.28125 0.21875,0.28125 0.171875,0 0.171875,-0.171875 0.171875,-0.34375 V -6.6875 c 0,-0.171875 0,-0.328125 -0.171875,-0.328125 -0.015625,0 -0.171875,0 -0.1875,0.171875 -0.015625,0.171875 -0.109375,0.28125 -0.3125,0.28125 -0.359375,0 -0.703125,-0.140625 -0.84375,-0.203125 -0.375,-0.171875 -0.703125,-0.25 -1.15625,-0.25 -1.65625,0 -3.5,1.046875 -3.5,3.59375 C 0.375,-1 2.03125,0.1875 3.9375,0.1875 Z m 2.25,-5.84375 c -0.15625,-0.21875 -0.34375,-0.4375 -0.5,-0.5625 0.0625,0.015625 0.140625,0.015625 0.1875,0.015625 0.109375,0 0.234375,-0.03125 0.3125,-0.078125 z M 2.546875,-0.421875 C 1.21875,-0.96875 0.71875,-2.140625 0.71875,-3.40625 c 0,-1.84375 1,-2.71875 1.9375,-3.046875 V -6.4375 c -0.25,0.25 -0.875,1.125 -0.875,3.046875 0,0.78125 0.078125,2.140625 0.765625,2.96875 z m 0,0"
             id="path223"
             style="fill:#4a1234;fill-opacity:1" />
        </g>
      </g>
      <g
         fill="#000000"
         fill-opacity="1"
         id="g105"
         transform="matrix(1.33333,0,0,1.33333,-287.798,-115.245)"
         style="fill:#4a1234;fill-opacity:1">
        <g
           id="use103"
           transform="translate(296.004,93.917999)"
           style="fill:#4a1234;fill-opacity:1">
          <path
             d="m 2.875,-2.5 c 0,-0.765625 -0.109375,-1.96875 -0.65625,-3.109375 -0.59375,-1.21875 -1.453125,-1.875 -1.546875,-1.875 -0.0625,0 -0.109375,0.046875 -0.109375,0.109375 0,0.03125 0,0.046875 0.1875,0.234375 0.984375,0.984375 1.546875,2.5625 1.546875,4.640625 0,1.71875 -0.359375,3.46875 -1.59375,4.71875 C 0.5625,2.34375 0.5625,2.359375 0.5625,2.390625 0.5625,2.453125 0.609375,2.5 0.671875,2.5 0.765625,2.5 1.671875,1.8125 2.25,0.546875 2.765625,-0.546875 2.875,-1.65625 2.875,-2.5 Z m 0,0"
             id="path227"
             style="fill:#4a1234;fill-opacity:1" />
        </g>
      </g>
      <g
         fill="#000000"
         fill-opacity="1"
         id="g109"
         transform="matrix(1.33333,0,0,1.33333,-287.798,-115.245)"
         style="fill:#4a1234;fill-opacity:1">
        <g
           id="use107"
           transform="translate(302.646,93.917999)"
           style="fill:#4a1234;fill-opacity:1">
          <path
             d="m 6.734375,-5.921875 c 0.109375,-0.0625 0.1875,-0.109375 0.1875,-0.21875 0,-0.109375 -0.09375,-0.203125 -0.203125,-0.203125 -0.046875,0 -0.140625,0.046875 -0.171875,0.0625 L 1.03125,-3.671875 c -0.171875,0.078125 -0.203125,0.140625 -0.203125,0.21875 0,0.078125 0.046875,0.15625 0.203125,0.21875 l 5.515625,2.59375 C 6.671875,-0.5625 6.6875,-0.5625 6.71875,-0.5625 c 0.109375,0 0.203125,-0.09375 0.203125,-0.203125 0,-0.125 -0.09375,-0.171875 -0.203125,-0.21875 L 1.5,-3.453125 Z m -0.1875,7.21875 c 0.125,0.0625 0.140625,0.0625 0.171875,0.0625 0.109375,0 0.203125,-0.078125 0.203125,-0.1875 C 6.921875,1.03125 6.828125,1 6.71875,0.953125 l -5.5,-2.59375 C 1.09375,-1.71875 1.0625,-1.71875 1.03125,-1.71875 c -0.125,0 -0.203125,0.09375 -0.203125,0.203125 0,0.078125 0.046875,0.15625 0.203125,0.21875 z m 0,0"
             id="path231"
             style="fill:#4a1234;fill-opacity:1" />
        </g>
      </g>
      <g
         fill="#000000"
         fill-opacity="1"
         id="g113"
         transform="matrix(1.33333,0,0,1.33333,-287.798,-115.245)"
         style="fill:#4a1234;fill-opacity:1">
        <g
           id="use111"
           transform="translate(313.16199,93.917999)"
           style="fill:#4a1234;fill-opacity:1">
          <path
             d="m 0.875,-0.59375 c -0.03125,0.15625 -0.09375,0.390625 -0.09375,0.4375 0,0.171875 0.140625,0.265625 0.296875,0.265625 0.125,0 0.296875,-0.078125 0.375,-0.28125 C 1.46875,-0.203125 1.796875,-1.5625 1.84375,-1.75 c 0.078125,-0.328125 0.265625,-1.015625 0.3125,-1.296875 0.046875,-0.125 0.328125,-0.59375 0.5625,-0.8125 0.078125,-0.0625 0.375,-0.328125 0.796875,-0.328125 0.265625,0 0.40625,0.125 0.421875,0.125 -0.296875,0.046875 -0.515625,0.28125 -0.515625,0.546875 0,0.15625 0.109375,0.34375 0.375,0.34375 0.265625,0 0.546875,-0.234375 0.546875,-0.59375 0,-0.34375 -0.3125,-0.640625 -0.828125,-0.640625 C 2.875,-4.40625 2.4375,-3.921875 2.25,-3.640625 2.15625,-4.09375 1.796875,-4.40625 1.328125,-4.40625 0.875,-4.40625 0.6875,-4.015625 0.59375,-3.84375 0.421875,-3.5 0.296875,-2.90625 0.296875,-2.875 c 0,0.109375 0.09375,0.109375 0.109375,0.109375 0.109375,0 0.109375,-0.015625 0.171875,-0.234375 0.171875,-0.703125 0.375,-1.1875 0.734375,-1.1875 0.15625,0 0.296875,0.078125 0.296875,0.453125 0,0.21875 -0.03125,0.328125 -0.15625,0.84375 z m 0,0"
             id="path235"
             style="fill:#4a1234;fill-opacity:1" />
        </g>
      </g>
      <g
         fill="#000000"
         fill-opacity="1"
         id="g123"
         transform="matrix(1.33333,0,0,1.33333,-287.798,-115.245)"
         style="fill:#4a1234;fill-opacity:1">
        <g
           id="use115"
           transform="translate(317.93301,93.917999)"
           style="fill:#4a1234;fill-opacity:1">
          <path
             d="m 3.296875,2.390625 c 0,-0.03125 0,-0.046875 -0.171875,-0.21875 C 1.890625,0.921875 1.5625,-0.96875 1.5625,-2.5 c 0,-1.734375 0.375,-3.46875 1.609375,-4.703125 0.125,-0.125 0.125,-0.140625 0.125,-0.171875 0,-0.078125 -0.03125,-0.109375 -0.09375,-0.109375 -0.109375,0 -1,0.6875 -1.59375,1.953125 -0.5,1.09375 -0.625,2.203125 -0.625,3.03125 0,0.78125 0.109375,1.984375 0.65625,3.125 C 2.25,1.84375 3.09375,2.5 3.203125,2.5 c 0.0625,0 0.09375,-0.03125 0.09375,-0.109375 z m 0,0"
             id="path239"
             style="fill:#4a1234;fill-opacity:1" />
        </g>
        <g
           id="use117"
           transform="translate(321.80746,93.917999)"
           style="fill:#4a1234;fill-opacity:1">
          <path
             d="m 1.171875,-2.171875 c 0,-1.625 0.8125,-2.046875 1.34375,-2.046875 0.09375,0 0.71875,0.015625 1.0625,0.375 -0.40625,0.03125 -0.46875,0.328125 -0.46875,0.453125 0,0.265625 0.1875,0.453125 0.453125,0.453125 0.265625,0 0.46875,-0.15625 0.46875,-0.46875 0,-0.671875 -0.765625,-1.0625 -1.53125,-1.0625 -1.25,0 -2.15625,1.078125 -2.15625,2.3125 0,1.28125 0.984375,2.265625 2.140625,2.265625 1.328125,0 1.65625,-1.203125 1.65625,-1.296875 0,-0.09375 -0.109375,-0.09375 -0.140625,-0.09375 -0.078125,0 -0.109375,0.03125 -0.125,0.09375 -0.28125,0.921875 -0.9375,1.046875 -1.296875,1.046875 -0.53125,0 -1.40625,-0.421875 -1.40625,-2.03125 z m 0,0"
             id="path243"
             style="fill:#4a1234;fill-opacity:1" />
        </g>
        <g
           id="use119"
           transform="translate(326.23483,93.917999)"
           style="fill:#4a1234;fill-opacity:1">
          <path
             d="M 4.6875,-2.140625 C 4.6875,-3.40625 3.703125,-4.46875 2.5,-4.46875 c -1.25,0 -2.21875,1.09375 -2.21875,2.328125 0,1.296875 1.03125,2.25 2.203125,2.25 1.203125,0 2.203125,-0.984375 2.203125,-2.25 z m -2.1875,2 c -0.4375,0 -0.875,-0.203125 -1.140625,-0.671875 -0.25,-0.4375 -0.25,-1.046875 -0.25,-1.40625 0,-0.390625 0,-0.921875 0.234375,-1.359375 C 1.609375,-4.03125 2.078125,-4.25 2.484375,-4.25 c 0.4375,0 0.859375,0.21875 1.125,0.65625 0.265625,0.421875 0.265625,1 0.265625,1.375 0,0.359375 0,0.90625 -0.21875,1.34375 C 3.421875,-0.421875 2.984375,-0.140625 2.5,-0.140625 Z m 0,0"
             id="path247"
             style="fill:#4a1234;fill-opacity:1" />
        </g>
        <g
           id="use121"
           transform="translate(331.21613,93.917999)"
           style="fill:#4a1234;fill-opacity:1">
          <path
             d="M 1.765625,-6.921875 0.328125,-6.8125 V -6.5 c 0.703125,0 0.78125,0.0625 0.78125,0.5625 V -0.75 c 0,0.4375 -0.109375,0.4375 -0.78125,0.4375 V 0 C 0.65625,-0.015625 1.1875,-0.03125 1.4375,-0.03125 c 0.25,0 0.734375,0.015625 1.109375,0.03125 v -0.3125 c -0.671875,0 -0.78125,0 -0.78125,-0.4375 z m 0,0"
             id="path251"
             style="fill:#4a1234;fill-opacity:1" />
        </g>
      </g>
      <g
         fill="#000000"
         fill-opacity="1"
         id="g127"
         transform="matrix(1.33333,0,0,1.33333,-287.798,-115.245)"
         style="fill:#4a1234;fill-opacity:1">
        <g
           id="use125"
           transform="translate(333.98401,95.412003)"
           style="fill:#4a1234;fill-opacity:1">
          <path
             d="m 1.640625,-1.40625 c 0,-0.046875 0.171875,-0.671875 0.171875,-0.703125 0.015625,-0.0625 0.21875,-0.40625 0.453125,-0.578125 0.0625,-0.046875 0.25,-0.1875 0.5625,-0.1875 0.0625,0 0.234375,0 0.375,0.09375 -0.21875,0.0625 -0.296875,0.265625 -0.296875,0.390625 0,0.140625 0.109375,0.25 0.265625,0.25 0.171875,0 0.390625,-0.125 0.390625,-0.421875 0,-0.359375 -0.375,-0.515625 -0.734375,-0.515625 -0.359375,0 -0.671875,0.15625 -0.984375,0.5 -0.125,-0.421875 -0.546875,-0.5 -0.71875,-0.5 -0.25,0 -0.421875,0.171875 -0.546875,0.359375 -0.15625,0.265625 -0.25,0.671875 -0.25,0.71875 0,0.078125 0.09375,0.078125 0.125,0.078125 0.09375,0 0.09375,-0.015625 0.140625,-0.203125 0.109375,-0.421875 0.25,-0.75 0.515625,-0.75 0.1875,0 0.234375,0.15625 0.234375,0.34375 0,0.125 -0.0625,0.390625 -0.125,0.578125 -0.046875,0.1875 -0.109375,0.46875 -0.140625,0.625 L 0.84375,-0.4375 C 0.828125,-0.34375 0.78125,-0.171875 0.78125,-0.15625 0.78125,0 0.90625,0.0625 1.015625,0.0625 1.125,0.0625 1.265625,0 1.3125,-0.125 1.328125,-0.171875 1.40625,-0.484375 1.453125,-0.65625 Z m 0,0"
             id="path255"
             style="fill:#4a1234;fill-opacity:1" />
        </g>
      </g>
      <g
         fill="#000000"
         fill-opacity="1"
         id="g131"
         transform="matrix(1.33333,0,0,1.33333,-287.798,-115.245)"
         style="fill:#4a1234;fill-opacity:1">
        <g
           id="use129"
           transform="translate(338.396,93.917999)"
           style="fill:#4a1234;fill-opacity:1">
          <path
             d="m 3.296875,2.390625 c 0,-0.03125 0,-0.046875 -0.171875,-0.21875 C 1.890625,0.921875 1.5625,-0.96875 1.5625,-2.5 c 0,-1.734375 0.375,-3.46875 1.609375,-4.703125 0.125,-0.125 0.125,-0.140625 0.125,-0.171875 0,-0.078125 -0.03125,-0.109375 -0.09375,-0.109375 -0.109375,0 -1,0.6875 -1.59375,1.953125 -0.5,1.09375 -0.625,2.203125 -0.625,3.03125 0,0.78125 0.109375,1.984375 0.65625,3.125 C 2.25,1.84375 3.09375,2.5 3.203125,2.5 c 0.0625,0 0.09375,-0.03125 0.09375,-0.109375 z m 0,0"
             id="path259"
             style="fill:#4a1234;fill-opacity:1" />
        </g>
      </g>
      <g
         fill="#000000"
         fill-opacity="1"
         id="g135"
         transform="matrix(1.33333,0,0,1.33333,-287.798,-115.245)"
         style="fill:#4a1234;fill-opacity:1">
        <g
           id="use133"
           transform="translate(342.26999,93.917999)"
           style="fill:#4a1234;fill-opacity:1">
          <path
             d="m 6.546875,-2.546875 c -0.25,0.328125 -0.25,0.65625 -0.25,0.8125 v 1.015625 c -0.140625,0.078125 -0.5,0.234375 -0.890625,0.34375 0.046875,-0.15625 0.046875,-0.546875 0.046875,-0.828125 0,-0.734375 0,-1.046875 -0.328125,-1.34375 z M 3.9375,0.1875 c 0.875,0 1.75,-0.21875 2.4375,-0.5625 0.25,-0.140625 0.265625,-0.140625 0.265625,-0.421875 V -1.71875 c 0,-0.53125 0.265625,-0.78125 0.625,-0.8125 0.1875,-0.015625 0.1875,-0.15625 0.1875,-0.1875 0,-0.171875 -0.171875,-0.171875 -0.34375,-0.171875 h -2.65625 c -0.203125,0 -0.359375,0 -0.359375,0.171875 0,0.09375 0.046875,0.171875 0.1875,0.1875 0.828125,0.0625 0.828125,0.671875 0.828125,0.953125 V -0.8125 c 0,0.28125 0,0.4375 -0.296875,0.546875 C 4.5,-0.15625 4.046875,-0.15625 3.953125,-0.15625 3.546875,-0.15625 2.84375,-0.234375 2.4375,-1.28125 2.21875,-1.859375 2.125,-2.625 2.125,-3.390625 c 0,-2 0.71875,-3.28125 1.78125,-3.28125 0.90625,0 2.015625,0.9375 2.25,1.703125 0.046875,0.1875 0.078125,0.28125 0.21875,0.28125 0.171875,0 0.171875,-0.171875 0.171875,-0.34375 V -6.6875 c 0,-0.171875 0,-0.328125 -0.171875,-0.328125 -0.015625,0 -0.171875,0 -0.1875,0.171875 -0.015625,0.171875 -0.109375,0.28125 -0.3125,0.28125 -0.359375,0 -0.703125,-0.140625 -0.84375,-0.203125 -0.375,-0.171875 -0.703125,-0.25 -1.15625,-0.25 -1.65625,0 -3.5,1.046875 -3.5,3.59375 C 0.375,-1 2.03125,0.1875 3.9375,0.1875 Z m 2.25,-5.84375 c -0.15625,-0.21875 -0.34375,-0.4375 -0.5,-0.5625 0.0625,0.015625 0.140625,0.015625 0.1875,0.015625 0.109375,0 0.234375,-0.03125 0.3125,-0.078125 z M 2.546875,-0.421875 C 1.21875,-0.96875 0.71875,-2.140625 0.71875,-3.40625 c 0,-1.84375 1,-2.71875 1.9375,-3.046875 V -6.4375 c -0.25,0.25 -0.875,1.125 -0.875,3.046875 0,0.78125 0.078125,2.140625 0.765625,2.96875 z m 0,0"
             id="path263"
             style="fill:#4a1234;fill-opacity:1" />
        </g>
      </g>
      <g
         fill="#000000"
         fill-opacity="1"
         id="g139"
         transform="matrix(1.33333,0,0,1.33333,-287.798,-115.245)"
         style="fill:#4a1234;fill-opacity:1">
        <g
           id="use137"
           transform="translate(350.01901,93.917999)"
           style="fill:#4a1234;fill-opacity:1">
          <path
             d="m 2.875,-2.5 c 0,-0.765625 -0.109375,-1.96875 -0.65625,-3.109375 -0.59375,-1.21875 -1.453125,-1.875 -1.546875,-1.875 -0.0625,0 -0.109375,0.046875 -0.109375,0.109375 0,0.03125 0,0.046875 0.1875,0.234375 0.984375,0.984375 1.546875,2.5625 1.546875,4.640625 0,1.71875 -0.359375,3.46875 -1.59375,4.71875 C 0.5625,2.34375 0.5625,2.359375 0.5625,2.390625 0.5625,2.453125 0.609375,2.5 0.671875,2.5 0.765625,2.5 1.671875,1.8125 2.25,0.546875 2.765625,-0.546875 2.875,-1.65625 2.875,-2.5 Z m 0,0"
             id="path267"
             style="fill:#4a1234;fill-opacity:1" />
        </g>
      </g>
      <g
         fill="#000000"
         fill-opacity="1"
         id="g143"
         transform="matrix(1.33333,0,0,1.33333,-287.798,-115.245)"
         style="fill:#4a1234;fill-opacity:1">
        <g
           id="use141"
           transform="translate(356.10699,93.917999)"
           style="fill:#4a1234;fill-opacity:1">
          <path
             d="m 6.5625,-2.296875 c 0.171875,0 0.359375,0 0.359375,-0.203125 0,-0.1875 -0.1875,-0.1875 -0.359375,-0.1875 H 1.171875 c -0.171875,0 -0.34375,0 -0.34375,0.1875 0,0.203125 0.171875,0.203125 0.34375,0.203125 z m 0,0"
             id="path271"
             style="fill:#4a1234;fill-opacity:1" />
        </g>
      </g>
      <g
         fill="#000000"
         fill-opacity="1"
         id="g149"
         transform="matrix(1.33333,0,0,1.33333,-287.798,-115.245)"
         style="fill:#4a1234;fill-opacity:1">
        <g
           id="use145"
           transform="translate(366.07001,93.917999)"
           style="fill:#4a1234;fill-opacity:1">
          <path
             d="m 2.9375,-6.375 c 0,-0.25 0,-0.265625 -0.234375,-0.265625 C 2.078125,-6 1.203125,-6 0.890625,-6 v 0.3125 c 0.203125,0 0.78125,0 1.296875,-0.265625 v 5.171875 c 0,0.359375 -0.03125,0.46875 -0.921875,0.46875 h -0.3125 V 0 c 0.34375,-0.03125 1.203125,-0.03125 1.609375,-0.03125 0.390625,0 1.265625,0 1.609375,0.03125 v -0.3125 h -0.3125 c -0.90625,0 -0.921875,-0.109375 -0.921875,-0.46875 z m 0,0"
             id="path275"
             style="fill:#4a1234;fill-opacity:1" />
        </g>
        <g
           id="use147"
           transform="translate(371.0513,93.917999)"
           style="fill:#4a1234;fill-opacity:1">
          <path
             d="m 2.875,-2.5 c 0,-0.765625 -0.109375,-1.96875 -0.65625,-3.109375 -0.59375,-1.21875 -1.453125,-1.875 -1.546875,-1.875 -0.0625,0 -0.109375,0.046875 -0.109375,0.109375 0,0.03125 0,0.046875 0.1875,0.234375 0.984375,0.984375 1.546875,2.5625 1.546875,4.640625 0,1.71875 -0.359375,3.46875 -1.59375,4.71875 C 0.5625,2.34375 0.5625,2.359375 0.5625,2.390625 0.5625,2.453125 0.609375,2.5 0.671875,2.5 0.765625,2.5 1.671875,1.8125 2.25,0.546875 2.765625,-0.546875 2.875,-1.65625 2.875,-2.5 Z m 0,0"
             id="path279"
             style="fill:#4a1234;fill-opacity:1" />
        </g>
      </g>
      <g
         fill="#000000"
         fill-opacity="1"
         id="g153"
         transform="matrix(1.33333,0,0,1.33333,-287.798,-115.245)"
         style="fill:#4a1234;fill-opacity:1">
        <g
           id="use151"
           transform="translate(374.92599,89.805)"
           style="fill:#4a1234;fill-opacity:1">
          <path
             d="m 1.640625,-1.40625 c 0,-0.046875 0.171875,-0.671875 0.171875,-0.703125 0.015625,-0.0625 0.21875,-0.40625 0.453125,-0.578125 0.0625,-0.046875 0.25,-0.1875 0.5625,-0.1875 0.0625,0 0.234375,0 0.375,0.09375 -0.21875,0.0625 -0.296875,0.265625 -0.296875,0.390625 0,0.140625 0.109375,0.25 0.265625,0.25 0.171875,0 0.390625,-0.125 0.390625,-0.421875 0,-0.359375 -0.375,-0.515625 -0.734375,-0.515625 -0.359375,0 -0.671875,0.15625 -0.984375,0.5 -0.125,-0.421875 -0.546875,-0.5 -0.71875,-0.5 -0.25,0 -0.421875,0.171875 -0.546875,0.359375 -0.15625,0.265625 -0.25,0.671875 -0.25,0.71875 0,0.078125 0.09375,0.078125 0.125,0.078125 0.09375,0 0.09375,-0.015625 0.140625,-0.203125 0.109375,-0.421875 0.25,-0.75 0.515625,-0.75 0.1875,0 0.234375,0.15625 0.234375,0.34375 0,0.125 -0.0625,0.390625 -0.125,0.578125 -0.046875,0.1875 -0.109375,0.46875 -0.140625,0.625 L 0.84375,-0.4375 C 0.828125,-0.34375 0.78125,-0.171875 0.78125,-0.15625 0.78125,0 0.90625,0.0625 1.015625,0.0625 1.125,0.0625 1.265625,0 1.3125,-0.125 1.328125,-0.171875 1.40625,-0.484375 1.453125,-0.65625 Z m 0,0"
             id="path283"
             style="fill:#4a1234;fill-opacity:1" />
        </g>
      </g>
      <g
         fill="#000000"
         fill-opacity="1"
         id="g157"
         transform="matrix(1.33333,0,0,1.33333,-287.798,-115.245)"
         style="fill:#4a1234;fill-opacity:1">
        <g
           id="use155"
           transform="translate(381.55099,93.917999)"
           style="fill:#4a1234;fill-opacity:1">
          <path
             d="m 4.078125,-2.296875 h 2.78125 C 7,-2.296875 7.1875,-2.296875 7.1875,-2.5 7.1875,-2.6875 7,-2.6875 6.859375,-2.6875 h -2.78125 v -2.796875 c 0,-0.140625 0,-0.328125 -0.203125,-0.328125 -0.203125,0 -0.203125,0.1875 -0.203125,0.328125 V -2.6875 h -2.78125 c -0.140625,0 -0.328125,0 -0.328125,0.1875 0,0.203125 0.1875,0.203125 0.328125,0.203125 h 2.78125 V 0.5 c 0,0.140625 0,0.328125 0.203125,0.328125 0.203125,0 0.203125,-0.1875 0.203125,-0.328125 z m 0,0"
             id="path287"
             style="fill:#4a1234;fill-opacity:1" />
        </g>
      </g>
      <g
         fill="#000000"
         fill-opacity="1"
         id="g161"
         transform="matrix(1.33333,0,0,1.33333,-287.798,-115.245)"
         style="fill:#4a1234;fill-opacity:1">
        <g
           id="use159"
           transform="translate(391.5116,93.917999)"
           style="fill:#4a1234;fill-opacity:1">
          <path
             d="m 2.9375,-6.375 c 0,-0.25 0,-0.265625 -0.234375,-0.265625 C 2.078125,-6 1.203125,-6 0.890625,-6 v 0.3125 c 0.203125,0 0.78125,0 1.296875,-0.265625 v 5.171875 c 0,0.359375 -0.03125,0.46875 -0.921875,0.46875 h -0.3125 V 0 c 0.34375,-0.03125 1.203125,-0.03125 1.609375,-0.03125 0.390625,0 1.265625,0 1.609375,0.03125 v -0.3125 h -0.3125 c -0.90625,0 -0.921875,-0.109375 -0.921875,-0.46875 z m 0,0"
             id="path291"
             style="fill:#4a1234;fill-opacity:1" />
        </g>
      </g>
    </g>
  </g>
</svg>
